<svg xmlns="http://www.w3.org/2000/svg" width="300" height="300" viewBox="-80.07312170000012 188.05419230000007 915.7412654 915.7412654">
<style>
line {
    stroke: black
}

circle {
    stroke: blue;
}

polyline {
    stroke: red;
    stroke-width: 1;
    fill-opacity: 0;
}

.stop {
    fill: red;
}

.centrePoint {
    fill: red;
}

.bigCircle {
    fill-opacity: 0;
}

.endCircle {
    fill: yellow;
}

.traceLine {
    stroke-width: 2;
    stroke: black;
}
</style>
<circle class="centrePoint" cx="0" cy="0" r="2"></circle><circle class="bigCircle" cx="0" cy="0" r="812.8293995906708"></circle><circle class="centrePoint" cx="411.1423042342341" cy="701.1801754954963" r="2"></circle><circle class="bigCircle" cx="411.1423042342341" cy="701.1801754954963" r="88.50594459466268"></circle><circle class="centrePoint" cx="475.97936173304004" cy="761.4251603779745" r="2"></circle><circle class="bigCircle" cx="475.97936173304004" cy="761.4251603779745" r="33.400116688477475"></circle><circle class="centrePoint" cx="508.68723195498166" cy="754.6603233253519" r="2"></circle><circle class="bigCircle" cx="508.68723195498166" cy="754.6603233253519" r="59.37830607912373"></circle><circle class="centrePoint" cx="456.57647196276247" cy="783.1252478089937" r="2"></circle><circle class="bigCircle" cx="456.57647196276247" cy="783.1252478089937" r="42.72176143868512"></circle><circle class="centrePoint" cx="489.9041911440508" cy="756.3967604855945" r="2"></circle><circle class="bigCircle" cx="489.9041911440508" cy="756.3967604855945" r="54.99016746602723"></circle><circle class="centrePoint" cx="543.5684714011879" cy="768.3994077946328" r="2"></circle><circle class="bigCircle" cx="543.5684714011879" cy="768.3994077946328" r="13.625630747382194"></circle><circle class="centrePoint" cx="548.9280102343478" cy="755.8721113281217" r="2"></circle><circle class="bigCircle" cx="548.9280102343478" cy="755.8721113281217" r="14.236879465991906"></circle><circle class="centrePoint" cx="539.9015491089503" cy="766.8817315068959" r="2"></circle><circle class="bigCircle" cx="539.9015491089503" cy="766.8817315068959" r="4.587424786199743"></circle><circle class="centrePoint" cx="540.710863865404" cy="762.3662607901239" r="2"></circle><circle class="bigCircle" cx="540.710863865404" cy="762.3662607901239" r="4.821157156184734"></circle><circle class="centrePoint" cx="544.089572277269" cy="765.8054301363795" r="2"></circle><circle class="bigCircle" cx="544.089572277269" cy="765.8054301363795" r="6.845913341166063"></circle><circle class="centrePoint" cx="540.7434776433068" cy="771.7778819089203" r="2"></circle><circle class="bigCircle" cx="540.7434776433068" cy="771.7778819089203" r="5.908143556851327"></circle><circle class="centrePoint" cx="545.5499703885656" cy="775.2135460045704" r="2"></circle><circle class="bigCircle" cx="545.5499703885656" cy="775.2135460045704" r="3.924978384342415"></circle><circle class="centrePoint" cx="548.0109815051412" cy="778.2711397646449" r="2"></circle><circle class="bigCircle" cx="548.0109815051412" cy="778.2711397646449" r="3.223664471511764"></circle><circle class="centrePoint" cx="545.312271300151" cy="776.5079109495533" r="2"></circle><circle class="bigCircle" cx="545.312271300151" cy="776.5079109495533" r="0.7996114172765827"></circle><circle class="centrePoint" cx="544.6317032998166" cy="776.088142423387" r="2"></circle><circle class="bigCircle" cx="544.6317032998166" cy="776.088142423387" r="2.266410235904556"></circle><circle class="centrePoint" cx="543.6198734502377" cy="778.1161502421378" r="2"></circle><circle class="bigCircle" cx="543.6198734502377" cy="778.1161502421378" r="2.60310260956889"></circle><circle class="centrePoint" cx="546.0920953730597" cy="778.9311729168305" r="2"></circle><circle class="bigCircle" cx="546.0920953730597" cy="778.9311729168305" r="0.409650202731332"></circle><circle class="centrePoint" cx="545.7155909424017" cy="779.0925968998465" r="2"></circle><circle class="bigCircle" cx="545.7155909424017" cy="779.0925968998465" r="2.9851249663954267"></circle><circle class="centrePoint" cx="546.711853252682" cy="776.278625955769" r="2"></circle><circle class="bigCircle" cx="546.711853252682" cy="776.278625955769" r="1.2688492734562007"></circle><circle class="centrePoint" cx="545.577218990498" cy="776.8465903647142" r="2"></circle><circle class="bigCircle" cx="545.577218990498" cy="776.8465903647142" r="1.785842132343747"></circle><circle class="centrePoint" cx="544.7011076586068" cy="775.2904216541349" r="2"></circle><circle class="bigCircle" cx="544.7011076586068" cy="775.2904216541349" r="0.95638160710835"></circle><circle class="centrePoint" cx="544.4689920803366" cy="774.362634967046" r="2"></circle><circle class="bigCircle" cx="544.4689920803366" cy="774.362634967046" r="0.6102783476229663"></circle><circle class="centrePoint" cx="544.1289314928113" cy="773.8558821097386" r="2"></circle><circle class="bigCircle" cx="544.1289314928113" cy="773.8558821097386" r="2.461325794090025"></circle><circle class="centrePoint" cx="546.5675568783352" cy="773.5223691508734" r="2"></circle><circle class="bigCircle" cx="546.5675568783352" cy="773.5223691508734" r="0.3070169959096051"></circle><circle class="centrePoint" cx="546.3719417293108" cy="773.285738321839" r="2"></circle><circle class="bigCircle" cx="546.3719417293108" cy="773.285738321839" r="1.8779480103175905"></circle><circle class="centrePoint" cx="547.1408171488081" cy="774.9990740503956" r="2"></circle><circle class="bigCircle" cx="547.1408171488081" cy="774.9990740503956" r="0.6586810171540334"></circle><circle class="centrePoint" cx="546.5026149115373" cy="775.1620421046322" r="2"></circle><circle class="bigCircle" cx="546.5026149115373" cy="775.1620421046322" r="0.7199474290508812"></circle><circle class="centrePoint" cx="547.1992210597363" cy="775.3438776756527" r="2"></circle><circle class="bigCircle" cx="547.1992210597363" cy="775.3438776756527" r="1.8478798222585746"></circle><circle class="centrePoint" cx="547.0866217812621" cy="777.188323727994" r="2"></circle><circle class="bigCircle" cx="547.0866217812621" cy="777.188323727994" r="0.6472579755419027"></circle><circle class="centrePoint" cx="546.7161376912795" cy="777.7190632365784" r="2"></circle><circle class="bigCircle" cx="546.7161376912795" cy="777.7190632365784" r="0.7064974813414027"></circle><circle class="centrePoint" cx="546.4761951087798" cy="778.3835677499154" r="2"></circle><circle class="bigCircle" cx="546.4761951087798" cy="778.3835677499154" r="1.113837182433276"></circle><circle class="centrePoint" cx="545.6311337534347" cy="777.6579614002511" r="2"></circle><circle class="bigCircle" cx="545.6311337534347" cy="777.6579614002511" r="0.7893302556076417"></circle><circle class="centrePoint" cx="544.8579630505026" cy="777.4990610649934" r="2"></circle><circle class="bigCircle" cx="544.8579630505026" cy="777.4990610649934" r="0.7990191937304127"></circle><circle class="centrePoint" cx="544.2538671649863" cy="778.0220331799784" r="2"></circle><circle class="bigCircle" cx="544.2538671649863" cy="778.0220331799784" r="0.4527437084498473"></circle><circle class="centrePoint" cx="544.4524030183783" cy="777.6151420637583" r="2"></circle><circle class="bigCircle" cx="544.4524030183783" cy="777.6151420637583" r="0.27804885849513816"></circle><circle class="centrePoint" cx="544.7304126060473" cy="777.6198150579389" r="2"></circle><circle class="bigCircle" cx="544.7304126060473" cy="777.6198150579389" r="1.2192302321161188"></circle><circle class="centrePoint" cx="545.5939809841964" cy="776.7591339235072" r="2"></circle><circle class="bigCircle" cx="545.5939809841964" cy="776.7591339235072" r="0.1576935604720863"></circle><circle class="centrePoint" cx="545.5530819181525" cy="776.9114314133458" r="2"></circle><circle class="bigCircle" cx="545.5530819181525" cy="776.9114314133458" r="0.2203269306240256"></circle><circle class="centrePoint" cx="545.434380675972" cy="777.0970492235447" r="2"></circle><circle class="bigCircle" cx="545.434380675972" cy="777.0970492235447" r="0.6645936790636063"></circle><circle class="centrePoint" cx="545.9023587960362" cy="777.5689403522941" r="2"></circle><circle class="bigCircle" cx="545.9023587960362" cy="777.5689403522941" r="0.8374660912300299"></circle><circle class="centrePoint" cx="545.0685654624766" cy="777.647286576656" r="2"></circle><circle class="bigCircle" cx="545.0685654624766" cy="777.647286576656" r="0.5769842757101872"></circle><circle class="centrePoint" cx="544.8478770256606" cy="777.1141754547757" r="2"></circle><circle class="bigCircle" cx="544.8478770256606" cy="777.1141754547757" r="0.4406787595871023"></circle><circle class="centrePoint" cx="544.9075876662226" cy="776.6775607406914" r="2"></circle><circle class="bigCircle" cx="544.9075876662226" cy="776.6775607406914" r="0.24053548864971486"></circle><circle class="centrePoint" cx="544.7490426094564" cy="776.8584496189426" r="2"></circle><circle class="bigCircle" cx="544.7490426094564" cy="776.8584496189426" r="1.0964220856245797"></circle><circle class="centrePoint" cx="544.2246572575581" cy="777.8213418208842" r="2"></circle><circle class="bigCircle" cx="544.2246572575581" cy="777.8213418208842" r="0.969012888007504"></circle><circle class="centrePoint" cx="545.185984886909" cy="777.9431415178101" r="2"></circle><circle class="bigCircle" cx="545.185984886909" cy="777.9431415178101" r="0.42328510680874765"></circle><circle class="centrePoint" cx="545.3028388030791" cy="778.3499774109191" r="2"></circle><circle class="bigCircle" cx="545.3028388030791" cy="778.3499774109191" r="0.656932496334991"></circle><circle class="centrePoint" cx="544.6916675716328" cy="778.5908716420525" r="2"></circle><circle class="bigCircle" cx="544.6916675716328" cy="778.5908716420525" r="0.24930390029940414"></circle><circle class="centrePoint" cx="544.9160433889875" cy="778.6995359291521" r="2"></circle><circle class="bigCircle" cx="544.9160433889875" cy="778.6995359291521" r="0.04288116715723139"></circle><circle class="centrePoint" cx="544.9111498492163" cy="778.6569348990557" r="2"></circle><circle class="bigCircle" cx="544.9111498492163" cy="778.6569348990557" r="0.2982228308939151"></circle><circle class="centrePoint" cx="544.8194248712786" cy="778.9407013264017" r="2"></circle><circle class="bigCircle" cx="544.8194248712786" cy="778.9407013264017" r="0.5193532537507479"></circle><circle class="centrePoint" cx="544.6781658883633" cy="778.4409276757085" r="2"></circle><circle class="bigCircle" cx="544.6781658883633" cy="778.4409276757085" r="0.8691337614343125"></circle><circle class="centrePoint" cx="544.2717204908793" cy="777.6726857645054" r="2"></circle><circle class="bigCircle" cx="544.2717204908793" cy="777.6726857645054" r="0.3012485981636259"></circle><circle class="centrePoint" cx="543.9735772372132" cy="777.7158287614923" r="2"></circle><circle class="bigCircle" cx="543.9735772372132" cy="777.7158287614923" r="0.24415113225428567"></circle><circle class="centrePoint" cx="543.7669322422483" cy="777.5857994515773" r="2"></circle><circle class="bigCircle" cx="543.7669322422483" cy="777.5857994515773" r="0.08372021284481032"></circle><circle class="centrePoint" cx="543.7978067999508" cy="777.5079802012245" r="2"></circle><circle class="bigCircle" cx="543.7978067999508" cy="777.5079802012245" r="0.5677006671513912"></circle><circle class="centrePoint" cx="544.182534422388" cy="777.9254352335548" r="2"></circle><circle class="bigCircle" cx="544.182534422388" cy="777.9254352335548" r="0.612337975788842"></circle><circle class="centrePoint" cx="544.5902775196047" cy="777.4685946013149" r="2"></circle><circle class="bigCircle" cx="544.5902775196047" cy="777.4685946013149" r="0.028064991419532014"></circle><circle class="centrePoint" cx="544.6164755678863" cy="777.4786596899692" r="2"></circle><circle class="bigCircle" cx="544.6164755678863" cy="777.4786596899692" r="0.26243403330946513"></circle><circle class="centrePoint" cx="544.8349770919662" cy="777.6240168563347" r="2"></circle><circle class="bigCircle" cx="544.8349770919662" cy="777.6240168563347" r="0.35082386149532024"></circle><circle class="centrePoint" cx="545.1855382237085" cy="777.6375916383228" r="2"></circle><circle class="bigCircle" cx="545.1855382237085" cy="777.6375916383228" r="0.16108135979501628"></circle><circle class="centrePoint" cx="545.0282181884515" cy="777.6029851218817" r="2"></circle><circle class="bigCircle" cx="545.0282181884515" cy="777.6029851218817" r="0.44157848259557264"></circle><circle class="centrePoint" cx="545.4316088337964" cy="777.7826168104551" r="2"></circle><circle class="bigCircle" cx="545.4316088337964" cy="777.7826168104551" r="0.4085431187218635"></circle><circle class="centrePoint" cx="545.04155740933" cy="777.9041378626508" r="2"></circle><circle class="bigCircle" cx="545.04155740933" cy="777.9041378626508" r="0.24124683474615086"></circle><circle class="centrePoint" cx="544.9315033848562" cy="777.6894563614167" r="2"></circle><circle class="bigCircle" cx="544.9315033848562" cy="777.6894563614167" r="0.24074878641105335"></circle><circle class="centrePoint" cx="544.7795207246495" cy="777.8761680352748" r="2"></circle><circle class="bigCircle" cx="544.7795207246495" cy="777.8761680352748" r="0.005359489967529747"></circle><circle class="centrePoint" cx="544.774473710451" cy="777.8779713046371" r="2"></circle><circle class="bigCircle" cx="544.774473710451" cy="777.8779713046371" r="0.22144148715711626"></circle><circle class="centrePoint" cx="544.6930201770125" cy="778.0838879239875" r="2"></circle><circle class="bigCircle" cx="544.6930201770125" cy="778.0838879239875" r="0.304412733343993"></circle><circle class="centrePoint" cx="544.4190165494915" cy="777.9512639279412" r="2"></circle><circle class="bigCircle" cx="544.4190165494915" cy="777.9512639279412" r="0.15981017358555438"></circle><circle class="centrePoint" cx="544.490170596615" cy="777.8081681797187" r="2"></circle><circle class="bigCircle" cx="544.490170596615" cy="777.8081681797187" r="0.21279042453853816"></circle><circle class="centrePoint" cx="544.480083168293" cy="777.5956169892606" r="2"></circle><circle class="bigCircle" cx="544.480083168293" cy="777.5956169892606" r="0.1397204977373922"></circle><circle class="centrePoint" cx="544.4391513513176" cy="777.7292074224775" r="2"></circle><circle class="bigCircle" cx="544.4391513513176" cy="777.7292074224775" r="0.1618361135406055"></circle><circle class="centrePoint" cx="544.3891678467647" cy="777.8831313547252" r="2"></circle><circle class="bigCircle" cx="544.3891678467647" cy="777.8831313547252" r="0.12513216598985596"></circle><circle class="centrePoint" cx="544.2796634554475" cy="777.822576856564" r="2"></circle><circle class="bigCircle" cx="544.2796634554475" cy="777.822576856564" r="0.26357614223981957"></circle><circle class="centrePoint" cx="544.4359852670641" cy="778.034793429835" r="2"></circle><circle class="bigCircle" cx="544.4359852670641" cy="778.034793429835" r="0.21334356072832497"></circle><circle class="centrePoint" cx="544.6202586179327" cy="777.9272815371722" r="2"></circle><circle class="bigCircle" cx="544.6202586179327" cy="777.9272815371722" r="0.26428586978778845"></circle><circle class="centrePoint" cx="544.3619785757814" cy="777.9833033257532" r="2"></circle><circle class="bigCircle" cx="544.3619785757814" cy="777.9833033257532" r="0.3261893746764638"></circle><circle class="centrePoint" cx="544.5856254391946" cy="778.2207514014189" r="2"></circle><circle class="bigCircle" cx="544.5856254391946" cy="778.2207514014189" r="0.13075144244589948"></circle><circle class="centrePoint" cx="544.6937312352675" cy="778.1472049769161" r="2"></circle><circle class="bigCircle" cx="544.6937312352675" cy="778.1472049769161" r="0.14946988541492898"></circle><circle class="centrePoint" cx="544.5457245337184" cy="778.12634202069" r="2"></circle><circle class="bigCircle" cx="544.5457245337184" cy="778.12634202069" r="0.12891917479110335"></circle><circle class="centrePoint" cx="544.4234619533989" cy="778.167232301717" r="2"></circle><circle class="bigCircle" cx="544.4234619533989" cy="778.167232301717" r="0.08781139633874856"></circle><circle class="centrePoint" cx="544.3490366843309" cy="778.2138340254097" r="2"></circle><circle class="bigCircle" cx="544.3490366843309" cy="778.2138340254097" r="0.17939325350346494"></circle><circle class="centrePoint" cx="544.2365300764245" cy="778.3535630581121" r="2"></circle><circle class="bigCircle" cx="544.2365300764245" cy="778.3535630581121" r="0.21123019315733227"></circle><circle class="centrePoint" cx="544.160309323567" cy="778.5505620208888" r="2"></circle><circle class="bigCircle" cx="544.160309323567" cy="778.5505620208888" r="0.3076508994640956"></circle><circle class="centrePoint" cx="544.103078607687" cy="778.8528428854848" r="2"></circle><circle class="bigCircle" cx="544.103078607687" cy="778.8528428854848" r="0.16708509188283865"></circle><circle class="centrePoint" cx="544.267341797835" cy="778.8834211832127" r="2"></circle><circle class="bigCircle" cx="544.267341797835" cy="778.8834211832127" r="0.3257135938141126"></circle><circle class="centrePoint" cx="543.9440751307861" cy="778.8435713755539" r="2"></circle><circle class="bigCircle" cx="543.9440751307861" cy="778.8435713755539" r="0.08964190683398292"></circle><circle class="centrePoint" cx="543.9691926923286" cy="778.9296224043857" r="2"></circle><circle class="bigCircle" cx="543.9691926923286" cy="778.9296224043857" r="0.16401942907902722"></circle><circle class="centrePoint" cx="543.8435649969189" cy="779.0350740770202" r="2"></circle><circle class="bigCircle" cx="543.8435649969189" cy="779.0350740770202" r="0.1670177772565037"></circle><circle class="centrePoint" cx="543.7650194397817" cy="778.8876782379552" r="2"></circle><circle class="bigCircle" cx="543.7650194397817" cy="778.8876782379552" r="0.12429338079608518"></circle><circle class="centrePoint" cx="543.6556712022391" cy="778.8285867203231" r="2"></circle><circle class="bigCircle" cx="543.6556712022391" cy="778.8285867203231" r="0.2592254919786261"></circle><circle class="centrePoint" cx="543.5007548092053" cy="778.6207435899074" r="2"></circle><circle class="bigCircle" cx="543.5007548092053" cy="778.6207435899074" r="0.2586812561571853"></circle><circle class="centrePoint" cx="543.6064397115214" cy="778.8568509674067" r="2"></circle><circle class="bigCircle" cx="543.6064397115214" cy="778.8568509674067" r="0.04359163293272506"></circle><circle class="centrePoint" cx="543.5813500889376" cy="778.8924984259464" r="2"></circle><circle class="bigCircle" cx="543.5813500889376" cy="778.8924984259464" r="0.13282984123404118"></circle><circle class="centrePoint" cx="543.7073399930174" cy="778.9345734873514" r="2"></circle><circle class="bigCircle" cx="543.7073399930174" cy="778.9345734873514" r="0.15852769358124755"></circle><circle class="centrePoint" cx="543.865867641362" cy="778.9346932475573" r="2"></circle><circle class="bigCircle" cx="543.865867641362" cy="778.9346932475573" r="0.26273198259515745"></circle><circle class="centrePoint" cx="544.1029420746808" cy="778.8214509950851" r="2"></circle><circle class="bigCircle" cx="544.1029420746808" cy="778.8214509950851" r="0.1541091631276598"></circle><circle class="centrePoint" cx="543.998919251224" cy="778.9351562560013" r="2"></circle><circle class="bigCircle" cx="543.998919251224" cy="778.9351562560013" r="0.2035931917588279"></circle><circle class="centrePoint" cx="543.8183801882785" cy="779.0292616994213" r="2"></circle><circle class="bigCircle" cx="543.8183801882785" cy="779.0292616994213" r="0.14031953806434155"></circle><circle class="centrePoint" cx="543.8500324262736" cy="779.1659646935088" r="2"></circle><circle class="bigCircle" cx="543.8500324262736" cy="779.1659646935088" r="0.07238281676724576"></circle><circle class="centrePoint" cx="543.7968362456621" cy="779.1168786615699" r="2"></circle><circle class="bigCircle" cx="543.7968362456621" cy="779.1168786615699" r="0.055498178955833845"></circle><circle class="centrePoint" cx="543.8037989320876" cy="779.061818976998" r="2"></circle><circle class="bigCircle" cx="543.8037989320876" cy="779.061818976998" r="0.22962248676249356"></circle><circle class="centrePoint" cx="543.5747249889662" cy="779.0459565998185" r="2"></circle><circle class="bigCircle" cx="543.5747249889662" cy="779.0459565998185" r="0.057791055635621806"></circle><circle class="centrePoint" cx="543.5170029153958" cy="779.0431337760175" r="2"></circle><circle class="bigCircle" cx="543.5170029153958" cy="779.0431337760175" r="0.05300402168241607"></circle><circle class="centrePoint" cx="543.5073993805663" cy="778.9910070224902" r="2"></circle><circle class="bigCircle" cx="543.5073993805663" cy="778.9910070224902" r="0.27212079829785196"></circle><circle class="centrePoint" cx="543.6057510566361" cy="778.7372814292195" r="2"></circle><circle class="bigCircle" cx="543.6057510566361" cy="778.7372814292195" r="0.07534776676647625"></circle><circle class="centrePoint" cx="543.622817485134" cy="778.6638919001638" r="2"></circle><circle class="bigCircle" cx="543.622817485134" cy="778.6638919001638" r="0.09865754948058678"></circle><circle class="centrePoint" cx="543.6093290178477" cy="778.5661607724726" r="2"></circle><circle class="bigCircle" cx="543.6093290178477" cy="778.5661607724726" r="0.17398013494252587"></circle><circle class="centrePoint" cx="543.4435383722188" cy="778.5134108987614" r="2"></circle><circle class="bigCircle" cx="543.4435383722188" cy="778.5134108987614" r="0.10380455265880528"></circle><circle class="centrePoint" cx="543.5458299744254" cy="778.5310691339705" r="2"></circle><circle class="bigCircle" cx="543.5458299744254" cy="778.5310691339705" r="0.09554398479400857"></circle><circle class="centrePoint" cx="543.5663186375298" cy="778.437747819607" r="2"></circle><circle class="bigCircle" cx="543.5663186375298" cy="778.437747819607" r="0.07400725586057533"></circle><circle class="centrePoint" cx="543.6303611026752" cy="778.4006582445473" r="2"></circle><circle class="bigCircle" cx="543.6303611026752" cy="778.4006582445473" r="0.19112154410994014"></circle><circle class="centrePoint" cx="543.7366852512622" cy="778.5594745536918" r="2"></circle><circle class="bigCircle" cx="543.7366852512622" cy="778.5594745536918" r="0.07966567326354573"></circle><circle class="centrePoint" cx="543.8156389950178" cy="778.5701012109034" r="2"></circle><circle class="bigCircle" cx="543.8156389950178" cy="778.5701012109034" r="0.032097261253635094"></circle><circle class="centrePoint" cx="543.800310474123" cy="778.598301753933" r="2"></circle><circle class="bigCircle" cx="543.800310474123" cy="778.598301753933" r="0.12487493667564294"></circle><circle class="centrePoint" cx="543.6758796151281" cy="778.587779817821" r="2"></circle><circle class="bigCircle" cx="543.6758796151281" cy="778.587779817821" r="0.17903637798746883"></circle><circle class="centrePoint" cx="543.5031243274354" cy="778.6347865749636" r="2"></circle><circle class="bigCircle" cx="543.5031243274354" cy="778.6347865749636" r="0.04445608854689247"></circle><circle class="centrePoint" cx="543.4964262462252" cy="778.5908379741101" r="2"></circle><circle class="bigCircle" cx="543.4964262462252" cy="778.5908379741101" r="0.0830664730405056"></circle><circle class="centrePoint" cx="543.5320045129384" cy="778.5157764934354" r="2"></circle><circle class="bigCircle" cx="543.5320045129384" cy="778.5157764934354" r="0.19615155842827378"></circle><circle class="centrePoint" cx="543.3731008498988" cy="778.4007762336687" r="2"></circle><circle class="bigCircle" cx="543.3731008498988" cy="778.4007762336687" r="0.19106686785588242"></circle><circle class="centrePoint" cx="543.2114870154307" cy="778.2988570671652" r="2"></circle><circle class="bigCircle" cx="543.2114870154307" cy="778.2988570671652" r="0.11727357469103321"></circle><circle class="centrePoint" cx="543.2399343829601" cy="778.1850860752494" r="2"></circle><circle class="bigCircle" cx="543.2399343829601" cy="778.1850860752494" r="0.22373838238822447"></circle><circle class="centrePoint" cx="543.4462105824553" cy="778.0984316277263" r="2"></circle><circle class="bigCircle" cx="543.4462105824553" cy="778.0984316277263" r="0.13740515856627503"></circle><circle class="centrePoint" cx="543.5566008370082" cy="778.1802495310259" r="2"></circle><circle class="bigCircle" cx="543.5566008370082" cy="778.1802495310259" r="0.2449343313413655"></circle><circle class="centrePoint" cx="543.7939312723915" cy="778.1196930193166" r="2"></circle><circle class="bigCircle" cx="543.7939312723915" cy="778.1196930193166" r="0.10470969158309162"></circle><circle class="centrePoint" cx="543.7810645903627" cy="778.2236091778531" r="2"></circle><circle class="bigCircle" cx="543.7810645903627" cy="778.2236091778531" r="0.06062587289750372"></circle><circle class="centrePoint" cx="543.7937473228678" cy="778.2828936173021" r="2"></circle><circle class="bigCircle" cx="543.7937473228678" cy="778.2828936173021" r="0.05762231249816489"></circle><circle class="centrePoint" cx="543.8169438594391" cy="778.3356406701935" r="2"></circle><circle class="bigCircle" cx="543.8169438594391" cy="778.3356406701935" r="0.13172226375469465"></circle><circle class="centrePoint" cx="543.7245036946339" cy="778.4294786726201" r="2"></circle><circle class="bigCircle" cx="543.7245036946339" cy="778.4294786726201" r="0.1878727796447442"></circle><circle class="centrePoint" cx="543.8581733965889" cy="778.5614960658329" r="2"></circle><circle class="bigCircle" cx="543.8581733965889" cy="778.5614960658329" r="0.20521287612754172"></circle><circle class="centrePoint" cx="543.7095809882342" cy="778.7030327066999" r="2"></circle><circle class="bigCircle" cx="543.7095809882342" cy="778.7030327066999" r="0.1493535118257692"></circle><circle class="centrePoint" cx="543.7310442330021" cy="778.5552294570106" r="2"></circle><circle class="bigCircle" cx="543.7310442330021" cy="778.5552294570106" r="0.22940508849520852"></circle><circle class="centrePoint" cx="543.5026112077845" cy="778.5341333052888" r="2"></circle><circle class="bigCircle" cx="543.5026112077845" cy="778.5341333052888" r="0.10321559917028664"></circle><circle class="centrePoint" cx="543.4708937823693" cy="778.4359117962538" r="2"></circle><circle class="bigCircle" cx="543.4708937823693" cy="778.4359117962538" r="0.2723922630955459"></circle><circle class="centrePoint" cx="543.7277270274337" cy="778.5266544500831" r="2"></circle><circle class="bigCircle" cx="543.7277270274337" cy="778.5266544500831" r="0.25054497278210414"></circle><circle class="centrePoint" cx="543.5641893145282" cy="778.3368434919063" r="2"></circle><circle class="bigCircle" cx="543.5641893145282" cy="778.3368434919063" r="0.07081187231737232"></circle><circle class="centrePoint" cx="543.5801202385691" cy="778.4058400637074" r="2"></circle><circle class="bigCircle" cx="543.5801202385691" cy="778.4058400637074" r="0.14597212284776653"></circle><circle class="centrePoint" cx="543.4343270036417" cy="778.398615570778" r="2"></circle><circle class="bigCircle" cx="543.4343270036417" cy="778.398615570778" r="0.28343885797919266"></circle><circle class="centrePoint" cx="543.7042313953516" cy="778.4851557669197" r="2"></circle><circle class="bigCircle" cx="543.7042313953516" cy="778.4851557669197" r="0.0947095737152769"></circle><circle class="centrePoint" cx="543.6890622603754" cy="778.5786426681273" r="2"></circle><circle class="bigCircle" cx="543.6890622603754" cy="778.5786426681273" r="0.1173165244481174"></circle><circle class="centrePoint" cx="543.80565515916" cy="778.5656325619941" r="2"></circle><circle class="bigCircle" cx="543.80565515916" cy="778.5656325619941" r="0.30868307503253245"></circle><circle class="centrePoint" cx="543.9359938354286" cy="778.8454486985555" r="2"></circle><circle class="bigCircle" cx="543.9359938354286" cy="778.8454486985555" r="0.23873377994052777"></circle><circle class="centrePoint" cx="544.037440566952" cy="778.629341367935" r="2"></circle><circle class="bigCircle" cx="544.037440566952" cy="778.629341367935" r="0.0842753309399912"></circle><circle class="centrePoint" cx="543.95395149429" cy="778.6178563276188" r="2"></circle><circle class="bigCircle" cx="543.95395149429" cy="778.6178563276188" r="0.1572064257457017"></circle><circle class="centrePoint" cx="544.0665322581877" cy="778.7275806726656" r="2"></circle><circle class="bigCircle" cx="544.0665322581877" cy="778.7275806726656" r="0.19773878117010948"></circle><circle class="centrePoint" cx="544.0446202811144" cy="778.9241016406038" r="2"></circle><circle class="bigCircle" cx="544.0446202811144" cy="778.9241016406038" r="0.25951921980993914"></circle><circle class="centrePoint" cx="543.9622005250638" cy="779.1701853850149" r="2"></circle><circle class="bigCircle" cx="543.9622005250638" cy="779.1701853850149" r="0.30336672466667985"></circle><circle class="centrePoint" cx="543.6593300484168" cy="779.1528405295645" r="2"></circle><circle class="bigCircle" cx="543.6593300484168" cy="779.1528405295645" r="0.1726933857827466"></circle><circle class="centrePoint" cx="543.5700340230761" cy="779.3006553642444" r="2"></circle><circle class="bigCircle" cx="543.5700340230761" cy="779.3006553642444" r="0.1792798574892825"></circle><circle class="centrePoint" cx="543.7474132363735" cy="779.326691531231" r="2"></circle><circle class="bigCircle" cx="543.7474132363735" cy="779.326691531231" r="0.11660354691157483"></circle><circle class="centrePoint" cx="543.6472847821832" cy="779.2669363656482" r="2"></circle><circle class="bigCircle" cx="543.6472847821832" cy="779.2669363656482" r="0.3799274605029653"></circle><circle class="centrePoint" cx="543.3816914599557" cy="779.5386072371681" r="2"></circle><circle class="bigCircle" cx="543.3816914599557" cy="779.5386072371681" r="0.5417453730586501"></circle><circle class="centrePoint" cx="543.7494314918551" cy="779.140794067239" r="2"></circle><circle class="bigCircle" cx="543.7494314918551" cy="779.140794067239" r="0.2277263451362667"></circle><circle class="centrePoint" cx="543.5530029096868" cy="779.025576445425" r="2"></circle><circle class="bigCircle" cx="543.5530029096868" cy="779.025576445425" r="0.029340063531078875"></circle><circle class="centrePoint" cx="543.5821022771548" cy="779.0218259599942" r="2"></circle><circle class="bigCircle" cx="543.5821022771548" cy="779.0218259599942" r="0.24443121682824331"></circle><circle class="centrePoint" cx="543.7393187154112" cy="778.8346639678533" r="2"></circle><circle class="bigCircle" cx="543.7393187154112" cy="778.8346639678533" r="0.2755944230413728"></circle><circle class="centrePoint" cx="543.6109912896677" cy="778.590769814964" r="2"></circle><circle class="bigCircle" cx="543.6109912896677" cy="778.590769814964" r="0.13241959485300142"></circle><circle class="centrePoint" cx="543.7426807738976" cy="778.5768835323702" r="2"></circle><circle class="bigCircle" cx="543.7426807738976" cy="778.5768835323702" r="0.3004261259535412"></circle><circle class="centrePoint" cx="543.7655822502105" cy="778.2773315676993" r="2"></circle><circle class="bigCircle" cx="543.7655822502105" cy="778.2773315676993" r="0.13345292512421392"></circle><circle class="centrePoint" cx="543.8119171674102" cy="778.4024825112529" r="2"></circle><circle class="bigCircle" cx="543.8119171674102" cy="778.4024825112529" r="0.35839847254878765"></circle><circle class="centrePoint" cx="544.0442038291529" cy="778.6754154185793" r="2"></circle><circle class="bigCircle" cx="544.0442038291529" cy="778.6754154185793" r="0.26285931964279013"></circle><circle class="centrePoint" cx="544.2549325527976" cy="778.5182899052018" r="2"></circle><circle class="bigCircle" cx="544.2549325527976" cy="778.5182899052018" r="0.3850539156390572"></circle><circle class="centrePoint" cx="544.0802940777804" cy="778.8614632156334" r="2"></circle><circle class="bigCircle" cx="544.0802940777804" cy="778.8614632156334" r="0.4325812474200864"></circle><circle class="centrePoint" cx="544.3558626496726" cy="779.1949126088023" r="2"></circle><circle class="bigCircle" cx="544.3558626496726" cy="779.1949126088023" r="0.09665497384711322"></circle><circle class="centrePoint" cx="544.4249740261049" cy="779.2624833244788" r="2"></circle><circle class="bigCircle" cx="544.4249740261049" cy="779.2624833244788" r="0.04359592463512983"></circle><circle class="centrePoint" cx="544.4571015247703" cy="779.233014213968" r="2"></circle><circle class="bigCircle" cx="544.4571015247703" cy="779.233014213968" r="0.6765554783623924"></circle><circle class="centrePoint" cx="544.4364192408336" cy="779.9092534899888" r="2"></circle><circle class="bigCircle" cx="544.4364192408336" cy="779.9092534899888" r="0.24538539725997055"></circle><circle class="centrePoint" cx="544.281766068182" cy="780.0997696031585" r="2"></circle><circle class="bigCircle" cx="544.281766068182" cy="780.0997696031585" r="0.44882405023403477"></circle><circle class="centrePoint" cx="543.8783191605456" cy="779.9031135053964" r="2"></circle><circle class="bigCircle" cx="543.8783191605456" cy="779.9031135053964" r="0.36060217875126094"></circle><circle class="centrePoint" cx="544.2270071083734" cy="779.8111861081755" r="2"></circle><circle class="bigCircle" cx="544.2270071083734" cy="779.8111861081755" r="0.4606670288461359"></circle><circle class="centrePoint" cx="543.9061308292382" cy="779.4806524110214" r="2"></circle><circle class="bigCircle" cx="543.9061308292382" cy="779.4806524110214" r="0.2617616530679324"></circle><circle class="centrePoint" cx="543.6449313545636" cy="779.49779876476" r="2"></circle><circle class="bigCircle" cx="543.6449313545636" cy="779.49779876476" r="0.3851662673506716"></circle><circle class="centrePoint" cx="543.3332653585346" cy="779.7241112929685" r="2"></circle><circle class="bigCircle" cx="543.3332653585346" cy="779.7241112929685" r="0.42711088636060546"></circle><circle class="centrePoint" cx="543.6616611099754" cy="779.4510180127812" r="2"></circle><circle class="bigCircle" cx="543.6616611099754" cy="779.4510180127812" r="0.26734757381699104"></circle><circle class="centrePoint" cx="543.4686260259497" cy="779.2660526604554" r="2"></circle><circle class="bigCircle" cx="543.4686260259497" cy="779.2660526604554" r="0.5426793948581612"></circle><circle class="centrePoint" cx="543.9420032252531" cy="779.0006945010118" r="2"></circle><circle class="bigCircle" cx="543.9420032252531" cy="779.0006945010118" r="0.22098410860206147"></circle><circle class="centrePoint" cx="543.7287065659991" cy="779.058474353952" r="2"></circle><circle class="bigCircle" cx="543.7287065659991" cy="779.058474353952" r="0.5825068321453022"></circle><circle class="centrePoint" cx="543.7802806984417" cy="778.4782551554082" r="2"></circle><circle class="bigCircle" cx="543.7802806984417" cy="778.4782551554082" r="0.4496372798058239"></circle><circle class="centrePoint" cx="544.2187544261109" cy="778.5778266048053" r="2"></circle><circle class="bigCircle" cx="544.2187544261109" cy="778.5778266048053" r="0.3925140446617463"></circle><circle class="centrePoint" cx="543.8388191365142" cy="778.4792545449923" r="2"></circle><circle class="bigCircle" cx="543.8388191365142" cy="778.4792545449923" r="0.5943743965748434"></circle><circle class="centrePoint" cx="544.1670466251452" cy="778.9747821819719" r="2"></circle><circle class="bigCircle" cx="544.1670466251452" cy="778.9747821819719" r="0.09545715693641413"></circle><circle class="centrePoint" cx="544.1376521136474" cy="779.0656008557355" r="2"></circle><circle class="bigCircle" cx="544.1376521136474" cy="779.0656008557355" r="0.5468733587165453"></circle><circle class="centrePoint" cx="544.6615136201941" cy="778.9086308190007" r="2"></circle><circle class="bigCircle" cx="544.6615136201941" cy="778.9086308190007" r="1.3811256045688842"></circle><circle class="centrePoint" cx="543.4991979403286" cy="779.6546403336414" r="2"></circle><circle class="bigCircle" cx="543.4991979403286" cy="779.6546403336414" r="0.29885438967348915"></circle><circle class="centrePoint" cx="543.6953011514759" cy="779.8801563570296" r="2"></circle><circle class="bigCircle" cx="543.6953011514759" cy="779.8801563570296" r="1.095780947169195"></circle><circle class="centrePoint" cx="543.619137435817" cy="780.9732871692364" r="2"></circle><circle class="bigCircle" cx="543.619137435817" cy="780.9732871692364" r="0.7279495940407724"></circle><circle class="centrePoint" cx="543.6983777786763" cy="780.2496632479018" r="2"></circle><circle class="bigCircle" cx="543.6983777786763" cy="780.2496632479018" r="0.7542370679485774"></circle><circle class="centrePoint" cx="542.9914738214987" cy="780.5126468025101" r="2"></circle><circle class="bigCircle" cx="542.9914738214987" cy="780.5126468025101" r="0.5123001072100675"></circle><circle class="centrePoint" cx="543.3635466017545" cy="780.8648019473543" r="2"></circle><circle class="bigCircle" cx="543.3635466017545" cy="780.8648019473543" r="0.6919032467573665"></circle><circle class="centrePoint" cx="543.0040234694635" cy="781.4559645478467" r="2"></circle><circle class="bigCircle" cx="543.0040234694635" cy="781.4559645478467" r="1.146585955715517"></circle><circle class="centrePoint" cx="542.3131834236606" cy="780.5408692604809" r="2"></circle><circle class="bigCircle" cx="542.3131834236606" cy="780.5408692604809" r="1.3508424162890318"></circle><circle class="centrePoint" cx="543.534276559041" cy="779.9631956602772" r="2"></circle><circle class="bigCircle" cx="543.534276559041" cy="779.9631956602772" r="0.6995139107025719"></circle><circle class="centrePoint" cx="544.2288289901753" cy="779.8800293710023" r="2"></circle><circle class="bigCircle" cx="544.2288289901753" cy="779.8800293710023" r="1.6518993115095892"></circle><circle class="centrePoint" cx="545.8664313745116" cy="780.096892844603" r="2"></circle><circle class="bigCircle" cx="545.8664313745116" cy="780.096892844603" r="0.9009618026422883"></circle><circle class="centrePoint" cx="546.6638658822753" cy="779.6775715171606" r="2"></circle><circle class="bigCircle" cx="546.6638658822753" cy="779.6775715171606" r="0.5063567073261686"></circle><circle class="centrePoint" cx="546.1718718812149" cy="779.5578258785149" r="2"></circle><circle class="bigCircle" cx="546.1718718812149" cy="779.5578258785149" r="1.1477256633656356"></circle><circle class="centrePoint" cx="545.1635663170299" cy="780.1060904930777" r="2"></circle><circle class="bigCircle" cx="545.1635663170299" cy="780.1060904930777" r="1.2219806025275906"></circle><circle class="centrePoint" cx="544.0414070475266" cy="780.5898209622666" r="2"></circle><circle class="bigCircle" cx="544.0414070475266" cy="780.5898209622666" r="1.4108808794714816"></circle><circle class="centrePoint" cx="545.2060038818983" cy="781.3862499104031" r="2"></circle><circle class="bigCircle" cx="545.2060038818983" cy="781.3862499104031" r="1.0476046561271606"></circle><circle class="centrePoint" cx="544.5561510689402" cy="782.2079352741705" r="2"></circle><circle class="bigCircle" cx="544.5561510689402" cy="782.2079352741705" r="1.2488378614830822"></circle><circle class="centrePoint" cx="543.4266152751876" cy="782.7406123760865" r="2"></circle><circle class="bigCircle" cx="543.4266152751876" cy="782.7406123760865" r="2.8292390106105043"></circle><circle class="centrePoint" cx="544.7649805000001" cy="785.2332759924159" r="2"></circle><circle class="bigCircle" cx="544.7649805000001" cy="785.2332759924159" r="2.7810656149069826"></circle><circle class="centrePoint" cx="547.2812297079965" cy="784.0488707080325" r="2"></circle><circle class="bigCircle" cx="547.2812297079965" cy="784.0488707080325" r="1.3678005849227042"></circle><circle class="centrePoint" cx="546.3875459539801" cy="785.0843453759612" r="2"></circle><circle class="bigCircle" cx="546.3875459539801" cy="785.0843453759612" r="4.59555358383003"></circle><circle class="centrePoint" cx="542.1364904137771" cy="783.3385963859968" r="2"></circle><circle class="bigCircle" cx="542.1364904137771" cy="783.3385963859968" r="2.9362258515894624"></circle><circle class="centrePoint" cx="540.1984980026504" cy="781.1327841396899" r="2"></circle><circle class="bigCircle" cx="540.1984980026504" cy="781.1327841396899" r="1.9856056731605158"></circle><circle class="centrePoint" cx="541.0058611773303" cy="782.9468388779649" r="2"></circle><circle class="bigCircle" cx="541.0058611773303" cy="782.9468388779649" r="4.518273995514782"></circle><circle class="centrePoint" cx="539.4339888143077" cy="787.1828767877233" r="2"></circle><circle class="bigCircle" cx="539.4339888143077" cy="787.1828767877233" r="3.7697171273825307"></circle><circle class="centrePoint" cx="542.4782564751063" cy="784.959545586598" r="2"></circle><circle class="bigCircle" cx="542.4782564751063" cy="784.959545586598" r="8.991538005072522"></circle><circle class="centrePoint" cx="546.8349363506192" cy="777.0939816424828" r="2"></circle><circle class="bigCircle" cx="546.8349363506192" cy="777.0939816424828" r="3.2700144625994945"></circle><circle class="centrePoint" cx="543.9962020582017" cy="775.470842029676" r="2"></circle><circle class="bigCircle" cx="543.9962020582017" cy="775.470842029676" r="6.094282830304403"></circle><circle class="centrePoint" cx="542.48557869614" cy="781.3749338543122" r="2"></circle><circle class="bigCircle" cx="542.48557869614" cy="781.3749338543122" r="7.864842060180291"></circle><circle class="centrePoint" cx="550.3486982595606" cy="781.2103393132932" r="2"></circle><circle class="bigCircle" cx="550.3486982595606" cy="781.2103393132932" r="11.084732663057915"></circle><circle class="centrePoint" cx="561.1092559606262" cy="783.871484963854" r="2"></circle><circle class="bigCircle" cx="561.1092559606262" cy="783.871484963854" r="7.1828988204782025"></circle><circle class="centrePoint" cx="566.3240858333945" cy="778.9318913709244" r="2"></circle><circle class="bigCircle" cx="566.3240858333945" cy="778.9318913709244" r="13.332772255893154"></circle><circle class="centrePoint" cx="554.562045435145" cy="785.2102049739121" r="2"></circle><circle class="bigCircle" cx="554.562045435145" cy="785.2102049739121" r="13.338551218860788"></circle><circle class="centrePoint" cx="541.2419634149701" cy="784.5085187235225" r="2"></circle><circle class="bigCircle" cx="541.2419634149701" cy="784.5085187235225" r="32.481220428405216"></circle><circle class="centrePoint" cx="516.5783201979292" cy="805.6446106939214" r="2"></circle><circle class="bigCircle" cx="516.5783201979292" cy="805.6446106939214" r="18.162314273747217"></circle><circle class="centrePoint" cx="511.55748260328414" cy="788.1900740450568" r="2"></circle><circle class="bigCircle" cx="511.55748260328414" cy="788.1900740450568" r="20.393499477122642"></circle><circle class="centrePoint" cx="492.83237760590276" cy="780.11138208655" r="2"></circle><circle class="bigCircle" cx="492.83237760590276" cy="780.11138208655" r="91.39154078253608"></circle><circle class="centrePoint" cx="418.71189145251185" cy="833.5769528680439" r="2"></circle><circle class="bigCircle" cx="418.71189145251185" cy="833.5769528680439" r="245.16749552788403"></circle><circle class="endCircle" cx="655.3735094488253" cy="897.5955394721079" r="4"></circle><polyline points="0,0 0,0 411.1423042342341,701.1801754954963 475.97936173304004,761.4251603779745 508.68723195498166,754.6603233253519 456.57647196276247,783.1252478089937 489.9041911440508,756.3967604855945 543.5684714011879,768.3994077946328 548.9280102343478,755.8721113281217 539.9015491089503,766.8817315068959 540.710863865404,762.3662607901239 544.089572277269,765.8054301363795 540.7434776433068,771.7778819089203 545.5499703885656,775.2135460045704 548.0109815051412,778.2711397646449 545.312271300151,776.5079109495533 544.6317032998166,776.088142423387 543.6198734502377,778.1161502421378 546.0920953730597,778.9311729168305 545.7155909424017,779.0925968998465 546.711853252682,776.278625955769 545.577218990498,776.8465903647142 544.7011076586068,775.2904216541349 544.4689920803366,774.362634967046 544.1289314928113,773.8558821097386 546.5675568783352,773.5223691508734 546.3719417293108,773.285738321839 547.1408171488081,774.9990740503956 546.5026149115373,775.1620421046322 547.1992210597363,775.3438776756527 547.0866217812621,777.188323727994 546.7161376912795,777.7190632365784 546.4761951087798,778.3835677499154 545.6311337534347,777.6579614002511 544.8579630505026,777.4990610649934 544.2538671649863,778.0220331799784 544.4524030183783,777.6151420637583 544.7304126060473,777.6198150579389 545.5939809841964,776.7591339235072 545.5530819181525,776.9114314133458 545.434380675972,777.0970492235447 545.9023587960362,777.5689403522941 545.0685654624766,777.647286576656 544.8478770256606,777.1141754547757 544.9075876662226,776.6775607406914 544.7490426094564,776.8584496189426 544.2246572575581,777.8213418208842 545.185984886909,777.9431415178101 545.3028388030791,778.3499774109191 544.6916675716328,778.5908716420525 544.9160433889875,778.6995359291521 544.9111498492163,778.6569348990557 544.8194248712786,778.9407013264017 544.6781658883633,778.4409276757085 544.2717204908793,777.6726857645054 543.9735772372132,777.7158287614923 543.7669322422483,777.5857994515773 543.7978067999508,777.5079802012245 544.182534422388,777.9254352335548 544.5902775196047,777.4685946013149 544.6164755678863,777.4786596899692 544.8349770919662,777.6240168563347 545.1855382237085,777.6375916383228 545.0282181884515,777.6029851218817 545.4316088337964,777.7826168104551 545.04155740933,777.9041378626508 544.9315033848562,777.6894563614167 544.7795207246495,777.8761680352748 544.774473710451,777.8779713046371 544.6930201770125,778.0838879239875 544.4190165494915,777.9512639279412 544.490170596615,777.8081681797187 544.480083168293,777.5956169892606 544.4391513513176,777.7292074224775 544.3891678467647,777.8831313547252 544.2796634554475,777.822576856564 544.4359852670641,778.034793429835 544.6202586179327,777.9272815371722 544.3619785757814,777.9833033257532 544.5856254391946,778.2207514014189 544.6937312352675,778.1472049769161 544.5457245337184,778.12634202069 544.4234619533989,778.167232301717 544.3490366843309,778.2138340254097 544.2365300764245,778.3535630581121 544.160309323567,778.5505620208888 544.103078607687,778.8528428854848 544.267341797835,778.8834211832127 543.9440751307861,778.8435713755539 543.9691926923286,778.9296224043857 543.8435649969189,779.0350740770202 543.7650194397817,778.8876782379552 543.6556712022391,778.8285867203231 543.5007548092053,778.6207435899074 543.6064397115214,778.8568509674067 543.5813500889376,778.8924984259464 543.7073399930174,778.9345734873514 543.865867641362,778.9346932475573 544.1029420746808,778.8214509950851 543.998919251224,778.9351562560013 543.8183801882785,779.0292616994213 543.8500324262736,779.1659646935088 543.7968362456621,779.1168786615699 543.8037989320876,779.061818976998 543.5747249889662,779.0459565998185 543.5170029153958,779.0431337760175 543.5073993805663,778.9910070224902 543.6057510566361,778.7372814292195 543.622817485134,778.6638919001638 543.6093290178477,778.5661607724726 543.4435383722188,778.5134108987614 543.5458299744254,778.5310691339705 543.5663186375298,778.437747819607 543.6303611026752,778.4006582445473 543.7366852512622,778.5594745536918 543.8156389950178,778.5701012109034 543.800310474123,778.598301753933 543.6758796151281,778.587779817821 543.5031243274354,778.6347865749636 543.4964262462252,778.5908379741101 543.5320045129384,778.5157764934354 543.3731008498988,778.4007762336687 543.2114870154307,778.2988570671652 543.2399343829601,778.1850860752494 543.4462105824553,778.0984316277263 543.5566008370082,778.1802495310259 543.7939312723915,778.1196930193166 543.7810645903627,778.2236091778531 543.7937473228678,778.2828936173021 543.8169438594391,778.3356406701935 543.7245036946339,778.4294786726201 543.8581733965889,778.5614960658329 543.7095809882342,778.7030327066999 543.7310442330021,778.5552294570106 543.5026112077845,778.5341333052888 543.4708937823693,778.4359117962538 543.7277270274337,778.5266544500831 543.5641893145282,778.3368434919063 543.5801202385691,778.4058400637074 543.4343270036417,778.398615570778 543.7042313953516,778.4851557669197 543.6890622603754,778.5786426681273 543.80565515916,778.5656325619941 543.9359938354286,778.8454486985555 544.037440566952,778.629341367935 543.95395149429,778.6178563276188 544.0665322581877,778.7275806726656 544.0446202811144,778.9241016406038 543.9622005250638,779.1701853850149 543.6593300484168,779.1528405295645 543.5700340230761,779.3006553642444 543.7474132363735,779.326691531231 543.6472847821832,779.2669363656482 543.3816914599557,779.5386072371681 543.7494314918551,779.140794067239 543.5530029096868,779.025576445425 543.5821022771548,779.0218259599942 543.7393187154112,778.8346639678533 543.6109912896677,778.590769814964 543.7426807738976,778.5768835323702 543.7655822502105,778.2773315676993 543.8119171674102,778.4024825112529 544.0442038291529,778.6754154185793 544.2549325527976,778.5182899052018 544.0802940777804,778.8614632156334 544.3558626496726,779.1949126088023 544.4249740261049,779.2624833244788 544.4571015247703,779.233014213968 544.4364192408336,779.9092534899888 544.281766068182,780.0997696031585 543.8783191605456,779.9031135053964 544.2270071083734,779.8111861081755 543.9061308292382,779.4806524110214 543.6449313545636,779.49779876476 543.3332653585346,779.7241112929685 543.6616611099754,779.4510180127812 543.4686260259497,779.2660526604554 543.9420032252531,779.0006945010118 543.7287065659991,779.058474353952 543.7802806984417,778.4782551554082 544.2187544261109,778.5778266048053 543.8388191365142,778.4792545449923 544.1670466251452,778.9747821819719 544.1376521136474,779.0656008557355 544.6615136201941,778.9086308190007 543.4991979403286,779.6546403336414 543.6953011514759,779.8801563570296 543.619137435817,780.9732871692364 543.6983777786763,780.2496632479018 542.9914738214987,780.5126468025101 543.3635466017545,780.8648019473543 543.0040234694635,781.4559645478467 542.3131834236606,780.5408692604809 543.534276559041,779.9631956602772 544.2288289901753,779.8800293710023 545.8664313745116,780.096892844603 546.6638658822753,779.6775715171606 546.1718718812149,779.5578258785149 545.1635663170299,780.1060904930777 544.0414070475266,780.5898209622666 545.2060038818983,781.3862499104031 544.5561510689402,782.2079352741705 543.4266152751876,782.7406123760865 544.7649805000001,785.2332759924159 547.2812297079965,784.0488707080325 546.3875459539801,785.0843453759612 542.1364904137771,783.3385963859968 540.1984980026504,781.1327841396899 541.0058611773303,782.9468388779649 539.4339888143077,787.1828767877233 542.4782564751063,784.959545586598 546.8349363506192,777.0939816424828 543.9962020582017,775.470842029676 542.48557869614,781.3749338543122 550.3486982595606,781.2103393132932 561.1092559606262,783.871484963854 566.3240858333945,778.9318913709244 554.562045435145,785.2102049739121 541.2419634149701,784.5085187235225 516.5783201979292,805.6446106939214 511.55748260328414,788.1900740450568 492.83237760590276,780.11138208655 418.71189145251185,833.5769528680439 655.3735094488253,897.5955394721079"></polyline><polyline class="traceLine" points=" 655.5193499924844,898.2187729138757 655.0603659163377,892.7045081144805 655.1672476012193,890.0029566467756 655.3334689326553,886.8305280030974 655.4786079975862,883.2444421187134 655.5166373836684,879.3565268120602 655.3748910080627,875.3197108625837 655.2218922102284,873.2990131199524 654.4254248038128,867.4741465726609 653.2347626462106,862.3233370989759 652.3557701565422,859.3493448549675 651.5223485405429,856.696828725148 651.1498478684489,855.4574002451236 650.5298860218958,853.0580783829512 650.0919530355791,850.6234559108586 649.9349189709077,849.3413188730362 649.7051528514056,846.5626138667051 649.5072828696858,843.4286770192037 649.3849756313551,841.7202930137427 649.0217731220448,838.0491078535082 648.4196848737499,834.1323450660873 647.5165980871078,830.1333985239136 646.3020498940725,826.2461628136018 644.8198251913458,822.6587174885268 644.0047896686335,821.0257512112976 641.433777603916,816.90204170812 640.5846729789567,815.7928928094285 638.9787755528154,813.9308359684284 637.5587378660432,812.4376955789955 636.9317927915519,811.7781142443412 635.8458104807926,810.5176642725874 634.9567162302661,809.1884159839428 634.5689949429932,808.451201446636 633.8650536904033,806.7689924929322 633.2018570025333,804.7777815879936 632.8686547781354,803.6714416589647 632.1782983337043,801.2833733632589 631.4476860124947,798.7573618202542 631.069461470007,797.4844645436099 630.2988437116643,795.0027363183464 629.5244983941222,792.6992387074596 628.7516843094538,790.6446288207569 627.9602228069098,788.8518098160616 627.100109947426,787.2754194566864 626.6216908570792,786.5409784948546 624.8672919225895,784.3791528385269 623.3381496281161,782.8240132112344 621.4692993017269,781.0630522479087 620.4078346574561,780.0861686462891 618.0613772654212,777.9264719284428 615.4952851599794,775.5076841082822 614.1688207649099,774.2157742970448 611.5194708718454,771.5100812287743 608.9942464200946,768.705937949681 606.7131369210099,765.8741997004691 605.6892889298814,764.4652693701667 603.8934974527555,761.6825153613889 602.4142876435992,758.9574409131649 601.1840391296467,756.2883102945783 600.1030930354585,753.6678183325752 599.0662086117433,751.0967634099658 597.9884285541956,748.5945007628769 597.4179249817666,747.3812701746837 596.2055174517483,745.0646673431891 594.9157500454811,742.9443807510263 593.5901801227338,741.0699287451622 592.2695882573986,739.4589613063608 590.9657822438738,738.0775360607836 590.3102476688337,737.4451767198966 588.9392535941923,736.2072877394165 586.4748451400784,734.0582024635949 584.3180163098195,732.1247940626105 583.0257004831851,730.9358002767515 579.9462330915629,728.031068940998 574.0724886641175,722.3030840775709 569.4867319567888,717.7114267952437 559.9654894418327,707.8678271225656 555.8035799241496,703.3815023944925 554.0465148390384,701.4265274240771 551.3844741526026,698.317792175023 550.0367993957634,696.4971764375839 549.884910865682,696.1182767340136 550.5882177686074,696.4297160248991 552.4664166530894,698.0543628438071 555.2071229316526,700.7322314803441 556.7818422245397,702.3560132675593 560.0942268088614,705.9256234936156 563.3333414395508,709.6028650558526 566.2422735127851,713.0623833981921 567.529946892562,714.6390630595699 569.7670564588437,717.4193837213313 571.644576493916,719.7178899034708 573.3557356755167,721.6621607449698 575.1353493789612,723.4652021841816 576.1194472481444,724.3897952687983 578.3745162516276,726.4261140661956 581.0633642268293,728.8495381338546 584.1383776957932,731.7350315065733 587.437226949884,735.0414542197047 590.7193139936958,738.6222549430049 593.7212319430437,742.2605899344272 595.0437874136484,744.0268046527311 597.2308502804015,747.3183892489545 598.7582914773826,750.1610171221714 599.2871590326233,751.3897581551726 600.1779922351227,754.3618995969576 600.344513104261,755.1697256425958 600.6949687233523,756.6633280455528 600.949469263157,757.4092719545878 601.767424202559,759.0462870676263 603.1294389405709,761.0343170046294 605.0885962292857,763.4802076538078 606.2740698600494,764.876223843739 608.9588486905322,767.9496557265218 619.5068185846452,779.7320587517827 620.3694660938098,780.6454255149146 621.6626771020356,781.9179948680045 622.4281074834462,782.5090644272177 622.6481945960476,782.6011484794392 622.8878333310819,782.4653207995555 622.888550959565,782.4292434359827 622.8992439735626,782.7974492063513 623.0301192165864,784.5946013209882 623.156140844699,786.7609780013146 623.2248543221802,789.6511957992884 623.2087149498085,791.3210639253626 623.0247899023659,794.9802259080749 622.5979895588029,798.8764727668399 622.290080994147,800.8476541064693 621.5082986831378,804.7361018834913 620.5713631801918,808.4826072339733 620.0776343558365,810.2993546022674 619.1137759253636,813.8644681350603 618.2737058285162,817.4506025045152 617.9280147043863,819.303499382419 617.4176230449359,823.2361326079856 617.1545105293438,827.5889041960623 617.1034185393278,832.4435186525773 617.1922655248763,837.7934502750682 617.3320091125729,843.5397709384147 617.3940569670922,846.5088982653738 617.4605541644964,852.5046857172953 617.4545201000785,855.4733720233594 617.26760987172,863.9332029436158 617.0375781023339,868.9841199234556 616.7848227007223,873.4430269791474 616.571011673634,877.2945573213982 616.4952667133946,879.0073204316623 616.4265354410855,882.0653304792781 616.4728128566605,884.7314110894147 616.5332182346466,885.9551060175519 616.7011987340039,888.2493394890289 616.8814255969629,890.4010508201294 616.9551208418881,891.4365126346481 617.0291492470311,893.4295445146411 616.9613805682308,895.2981668074832 616.8626579421149,896.1733995622295 616.5250432117709,897.7785029365916 616.0027259463232,899.162764031426 615.3131048493822,900.3159244753011 614.9137876248905,900.8111478754436 614.0238975672488,901.6662421772604 613.0330934382449,902.3941453550284 611.959833014075,903.0679768780223 610.8153945070064,903.7570104788052 609.6075919782185,904.5124786982752 608.3467702864993,905.3586760306749 606.4007953528488,906.7826465329416 604.4968426920736,908.2997450348972 603.3322596905107,909.3029426860388 602.8013274035512,909.7928861949149 601.8719879058791,910.7469235470153 601.1487586549391,911.6799931256257 600.870888090055,912.1484407186028 600.483343941468,913.115785667431 600.3049978455177,914.1605546098673 600.3020821284632,915.3179851653281 600.3525647644028,915.9445942964485 600.5274914061564,917.2903007323735 600.7638783175507,918.7342111053863 601.0257051662396,920.2248846716698 601.2898161586126,921.6955654482867 601.669544752737,923.7170663190633 601.9100754688578,924.8679303063282 602.1398877918331,925.8365776182416 602.2488833547652,926.2555448985643 602.4460248500185,926.9844253399488 602.5957158456338,927.6123720226606 602.6432980450223,927.9079742921415 602.6619038480035,928.5020635286595 602.5484801938352,929.1452859690528 602.2706854085021,929.874972164596 601.8039768409415,930.7038798270171 601.1334100962567,931.6195442416918 600.2526809429918,932.5886950536324 599.7331602912791,933.0791684756155 598.5364424757232,934.0407190613435 597.1298950923627,934.9369967614989 595.5123177791163,935.7290367750014 594.6237121205793,936.0774116348391 592.6866877395482,936.6698698917551 590.5418154119563,937.1213718683431 588.2073489658522,937.439325593181 585.7205509316296,937.6386416294281 584.437725158699,937.6995705678003 581.8404300923592,937.7562022631132 579.2761209170453,937.7419157193298 576.8419931986888,937.6750261944869 574.6317836245705,937.5725112856443 572.7224025045091,937.4495803041323 571.1627006283882,937.318497014748 570.5198796247777,937.2524106343404 569.5009194489129,937.1201615673899 568.8057205462925,936.9819545577095 568.3783264673222,936.8205726447359 568.1552370739493,936.607011106823 568.0799828882076,936.3027471546427 568.0850600718968,936.1031478981339 568.2468183535916,935.2526446345273 568.4866147697722,934.4364235875556 568.6549545802626,933.9469502400549 569.7384429176318,931.4694732324167 570.1247026700249,930.7376942205865 571.0364290547818,929.1769287569805 572.1116106846207,927.5283847525512 573.3047866652167,925.8376293439967 573.9275773191517,924.9870121090624 575.1883279027016,923.2854933658571 576.4277066866956,921.5805608911289 577.6151960136351,919.8504867949428 578.1876750158802,918.9651444644292 579.302450866856,917.1292788235784 580.4102463010275,915.1785115785729 581.560426089409,913.0947097418367 582.7973699486823,910.8855096135941 584.1429254971449,908.5877931257692 585.5834043668887,906.2639794332935 586.3239387266295,905.1162982808158 587.7951111092945,902.899144779815 589.1684655648071,900.8439193934386 589.7850956519067,899.8928939590145 590.8184904409641,898.1570406977974 591.5307609147992,896.6311571290098 591.9010981798991,895.2677495986181 591.9679033847092,893.9892917621164 591.8256105653787,892.7033411020992 591.6083172782614,891.3207748579503 591.4632876219935,889.772801613303 591.5200048073234,888.0225710473985 591.6524701984576,887.069819795296 592.5066904372376,883.9377759795437 593.4024017151809,881.6731394223867 593.9110281439359,880.5034245298613 594.9604110473655,878.104765301042 595.9235679027615,875.6245935463338 596.3277325726684,874.3439919144479 596.912881771774,871.6612800911613 597.1543789728216,868.7420565006556 597.060014104817,865.487885041127 596.7063238208531,861.8132261016797 596.4707656318404,859.8017201607395 595.9745223391492,855.4296015703952 595.5656189699674,850.6440698257228 595.3600627466989,845.5736493742193 595.4173290292708,840.4123761950065 595.7268264653815,835.3954779744114 596.2105412232554,830.7642946022016 596.4790965653176,828.6606721268897 596.9775669075682,824.9772065827763 597.303900390849,822.0594077456512 597.2285941975772,819.0656249123911 596.7327651657657,817.7904664604687 596.3581215547625,817.2869378470596 595.4047064273107,816.3822463139785 594.2749841369421,815.3912848113406 593.0982235507043,814.0795220164589 592.5305410555364,813.2487184862008 591.4960532054755,811.1789790659113 590.6404864289168,808.5631234532592 589.9701072998587,805.485532555931 589.2099303603837,800.3764424025352 588.7533658385789,796.953496429301 588.5093764995081,795.3162214412124 587.9503737364802,792.2965234646955 587.2695507742515,789.7069172123662 586.4697995539959,787.5813944192201 586.0363686161974,786.679595918549 585.1381879499606,785.1298904688732 584.2509844761074,783.7873406056543 583.4265283321116,782.4697640141361 582.6862865949038,780.9965991294292 582.3431479726585,780.1531570233211 581.6780188609522,778.1827333197606 580.9717349199449,775.7857664007348 579.0402658568065,769.7500267285375 577.6481352482264,766.2454721070192 575.9235331044578,762.5423926669962 573.8951162113136,758.729241427611 571.6404925131877,754.868206400319 569.2697081783197,750.9863709360199 568.0780168018144,749.0364806458398 565.7488605968844,745.1010796593316 563.554730998788,741.0834496626726 561.5261865424367,736.9420251307806 560.5682313446812,734.8156513521297 558.7254492178225,730.4474900721651 556.9016691685966,725.9446062251413 554.9921871975507,721.3603835272779 552.9067545141821,716.7773506839682 551.7805545436419,714.5171357593782 549.3574214245217,710.1233505315025 546.7486645289,705.9757994813743 544.0567581708982,702.1459445777549 542.7240438114648,700.3634322425104 540.1853177942969,697.0691813464341 537.9425952086827,694.1176874135916 536.1145199477256,691.4623641091438 535.3764324917212,690.2264262400234 534.2509828708569,687.8976671429517 533.5326270292467,685.7145085463166 533.0859494485923,683.6438065846911 532.9073634277669,682.6489158593336 532.5108632359052,680.755663612638 531.8937127509238,679.0350664632816 530.1956842421474,676.9403051986824 529.3723465260325,676.4129172501029 527.3195019915056,675.6698326991864 524.7664536105368,675.3833578864356 521.8187116478992,675.57050523985 518.6252290329151,676.2060086959415 515.351122819111,677.2228390883895 512.1505942757497,678.519640055902 510.6175706828695,679.2350700059418 507.7408832017091,680.7192832916395 505.153482635258,682.1715953834151 502.8582674489111,683.4858298149613 500.81992176926485,684.5864174900436 498.97893026439414,685.4355595318589 497.26653081259093,686.034811968403 496.4377079909718,686.2511788650424 494.79870562072836,686.554705310297 493.1462312102539,686.7512221995778 491.4451346943249,686.9291587668379 490.567772813929,687.0396102915068 488.7440040580879,687.3572216255008 486.80588468505204,687.8659249669028 484.72123257364126,688.6240763301381 483.6118966132234,689.1089149223167 481.2320255366995,690.3012018256807 478.60038751297407,691.7865773332101 475.6781023814995,693.5387273876493 474.0993419002919,694.500195213057 470.7002617256008,696.553401634558 466.9889496032972,698.7146350999685 463.0008521223558,700.8964714422465 458.7966291333523,703.0091144909992 454.45608699711426,704.9696399592648 450.0684828252215,706.7112187113603 445.7206950875231,708.1908997941463 441.4851292349177,709.3944623036479 439.42546508581665,709.89638292009 435.4373904763065,710.7225429026792 431.6189905000945,711.3558767652207 427.93380432246084,711.8584823750363 424.31539808584387,712.2918164267048 420.676103644126,712.7046879888923 416.9188617696579,713.124019417345 414.9663955390594,713.337339393481 410.8625172467841,713.75970069955 406.44332183457453,714.1462665500516 401.67745097309154,714.4518878025939 399.1647471281163,714.5603347681695 393.9006090046861,714.6674430646095 388.37017588381866,714.6169617490806 382.6580843890798,714.4211185367031 379.764701234687,714.2807972515883 373.96670543339246,713.9537047474764 368.23154275708043,713.6273253916859 362.6345612850045,713.3785138073131 357.2223129470046,713.2709566529044 352.00821428555616,713.3403789133196 346.97413467422996,713.5852253119021 342.07771062412615,713.9653113943284 339.6640979655515,714.1845945702308 334.8713905497353,714.6276639847367 330.0870880455113,715.0022473671037 325.2862676707039,715.2315420377826 320.47492081323,715.2686280213484 318.076606289504,715.2115326578687 313.335321301172,714.963002629488 306.5311282461082,714.3761279626407 304.39672509516953,714.1668257384036 300.4072592237174,713.7982600208799 296.86744480869146,713.5630703606363 293.84810047773686,713.5127709854361 291.3874362175674,713.6562916119486 290.36855537664525,713.7911969040789 288.73776908284003,714.1470544469541 287.2023380764233,714.7332492342548 286.89426330566505,714.8979838540662 286.51299199133155,715.1277779997242 286.36076811967627,715.1960070152577 286.3380329811868,715.110923122879 286.35246351478713,714.9302997437376 286.32329461710657,714.7521929665006 286.183847778935,714.6967934582693 285.8829038809102,714.8835915267257 285.0570187081024,715.81876462719 284.23731693286203,716.9457192271324 283.21027168647726,718.4695872546492 282.0027400398076,720.3440145876781 280.65771460741666,722.5047744345106 279.9506484366289,723.6728825087374 278.50594294817313,726.1563025610741 277.0733150179195,728.8230939113743 275.7117622115764,731.6926280342867 274.4683896414984,734.8206624282845 273.9009244134677,736.5058421714767 272.8826834606278,740.170562724881 272.0151932465344,744.2862552726738 271.27593802006925,748.8922618402919 270.628733675741,753.9776964910236 269.7399380891239,762.3403767114563 269.1496492281174,768.2136188971892 268.5355008810227,774.132199363143 267.8936133335588,779.9267242737195 266.90585720897985,788.0798560414145 266.2624489685768,793.0272049518705 265.6561599955763,797.5509007649553 265.09860399436917,801.6762095489788 264.5867274531307,805.4598776919111 264.101494073772,808.9704055147714 263.61087960681675,812.2693201479622 263.07660054234736,815.3982290837685 262.4630785848584,818.3747899833799 261.74656980267645,821.1983120147916 260.9223031667968,823.8631194920433 260.00790042290123,826.3757043635916 259.0421855265188,828.7705992582003 258.0795371188403,831.1200917070222 256.4036387183712,836.1507203339031 255.79151340151674,839.1141005163098 255.36821634573647,842.5516594236531 255.13428630437593,846.5478431664388 255.08774395379936,853.6184796047238 255.2016012641695,858.9518356159926 255.3770842597428,864.6172967744737 255.5708999065411,870.4242061017826 255.74946812984788,876.1661146025685 255.94672992381197,884.2432318283039 256.02294538736544,889.0622811277588 256.0646714040428,895.2613524541003 256.0538951697486,898.7056437007645 256.0159783800928,901.6548288755038 255.94748605423814,904.1837859757496 255.83878284723124,906.3710470868824 255.67577172901574,908.2839637330545 255.56897316244596,909.1533247365774 255.2954476401715,910.7377905557017 254.93204716994117,912.1302028064724 254.47119731986268,913.3376713423387 253.91087777748072,914.3653324930683 253.25413231017134,915.2246994683018 252.5077931679903,915.9384296472538 252.10382787048667,916.2508946943137 250.78407725196715,917.070507006964 249.82805261008616,917.5684800853154 248.824917013583,918.0647688844773 247.7882561043893,918.575437157398 246.73382236464423,919.1002906257662 245.67953508897622,919.6257926458185 244.64458428291093,920.1319360282221 243.6476173514341,920.6011880031261 242.7043330072038,921.0269770545104 241.8250824231095,921.419249116907 241.01319035619937,921.8053707988107 240.63150312996473,922.00849356497 239.9110747767542,922.4633122128338 239.23738539227017,923.0189229390379 238.59699428402104,923.7078761250272 237.97927933205224,924.5428494303118 237.3802705075025,925.5122047326167 236.80525667293134,926.5811124687883 236.26947206371855,927.6981297052149 235.7965930705056,928.8057381479063 235.41527726177583,929.852342233405 235.07702246448346,931.2373703234947 235.03933231437642,932.0290967789972 235.16425520943068,932.7393510713476 235.44834329937734,933.4072326537769 235.87562206719903,934.0774144939486 236.41947207342133,934.7890509260754 236.72461830677895,935.1688067997686 237.37772073865762,935.9823665701268 238.05503209647307,936.8612284518804 238.7175985744632,937.781986819072 239.32874691257334,938.7102015693717 239.85530322635688,939.6095187287432 240.26839388135022,940.4506233160432 240.54428517759652,941.2177102565444 240.66509304523112,942.2337633458743 240.54044431858608,942.8451822561082 240.25783421744163,943.4304851013112 240.0627710980261,943.7198557347654 239.30747075314565,944.591861037799 238.7128362679873,945.1742496220943 238.100375785812,945.7406912876836 237.51842911847686,946.2674806871293 237.00920383214228,946.7303322260235 236.31206480461273,947.4089128738123 236.13243958795013,947.6328124388598 236.04202056013605,947.8103679113515 235.99754729245353,948.0684036720504 235.9708978656779,948.2863803221068 235.90471281034723,948.5698046872054 235.7732533601845,948.9253729369244 235.67819248738004,949.1273906057606 235.2685171055951,949.7938002672477 234.8944155670616,950.2464869533089 234.44389410524352,950.6657874083965 233.91622410889056,951.0254832982839 233.30239440887638,951.3132177009276 232.58427934342205,951.532626958574 231.73718201562957,951.7013973135508 231.2570490567109,951.7748901264284 230.16961457384468,951.9179074877218 228.20004065789558,952.1677420388971 227.45496265270472,952.268268121832 225.84848598893788,952.4975830331352 223.22506179105213,952.8929663265272 221.40931472716565,953.164701825014 219.6037441262674,953.4197088961384 217.85441417372516,953.643155403766 216.19189539757173,953.8288296548639 214.62777997450152,953.9795115355165 213.15561815745284,954.1040686572746 211.7560078545454,954.2121685081013 210.4045265093318,954.3082614855255 208.42516405719417,954.4144642150907 207.12892103927257,954.4307136459472 205.86464299813352,954.3689837460604 204.659139324012,954.1986368149268 203.5468825828403,953.8972354483415 202.56236193746054,953.4581690226479 201.73274583294244,952.895046170515 200.80763129291495,951.8946901885764 200.58438776762083,951.5437423354476 200.25805053288468,950.853287284753 200.08041545698103,950.2111861918255 200.04084798301693,949.6376416050883 200.13774026633052,949.1236253537211 200.381274644239,948.6291441402756 200.79140887765644,948.0889834882458 201.39100716855754,947.42535328049 202.19549174105236,946.5651479965728 203.20159389398822,945.4582437154492 203.77181703577165,944.8067706139449 205.01254073320314,943.3219289615032 206.9674872330056,940.7700749157337 208.1835239402209,939.0084860531707 209.2064520517923,937.3493393194891 209.95230059223175,935.9151824799451 210.3774693437609,934.7959779051273 210.49201660622344,934.0296580123429 210.36371133597837,933.5916997482124 210.11110166344147,933.3962532055834 209.8861188175274,933.3090832957944 209.84901445248562,933.170183712041 210.14020352588852,932.8218997095646 210.8544385242008,932.1371781108797 212.02245784694776,931.0424150394947 213.60386847692538,929.5303412733305 215.49282505524317,927.6602901566487 217.5355225494912,925.5456603661813 219.55617419547625,923.330926076391 221.3864998854337,921.1626540603963 222.89314557102,919.1602365072685 223.99799847849016,917.3921852325765 224.6879138533359,915.8628155370106 225.0676110330274,913.8705891028255 225.04108157860722,912.5707464985148 224.9454366857773,911.1324956938396 224.90852010928708,909.4369647226293 225.03122886050076,907.4141254174893 225.37400342990145,905.062221812337 225.95194093590942,902.453438544043 226.73841726699717,899.723709416972 227.67547140316677,897.0475567778956 228.68811201556593,894.6018233233178 229.6993259838551,892.5245553754959 230.64289708860986,890.8766521285261 231.47201979583144,889.613907507906 232.16285294657953,888.5756690654648 232.71330653720318,887.4937034650421 233.1382403748271,886.0214052923197 233.4627233782792,883.7798005652215 233.8223224459013,878.2182282367315 234.01219963018104,872.6885795591805 234.18023100305172,865.5993084180473 234.33171255160417,857.0480328279866 234.6003244885035,831.275207325884 234.62229743299892,825.8016893925488 234.61820443143952,815.011191778515 234.5370021855479,804.7778736259264 234.3662755520711,795.4192198320479 234.2450178143919,791.1272372881323 233.93018070918706,783.3484224039021 233.5244679165288,776.5714184090837 232.7783718345846,767.8324119005604 232.22157117887357,762.5441249441407 231.6456840184126,757.3534941390527 231.07038127071087,752.0449526658684 229.9391763150276,740.7657859376583 229.347263345834,734.9418902887571 228.68074606696916,729.2510284102481 227.87622427493633,723.9375962023992 226.86257759125488,719.2223494661998 225.57162765929445,715.2520259250674 224.80453105105855,713.5628113613989 223.00449253036527,710.7428431279367 220.84207214456637,708.5382278819266 214.06420707310716,704.0640768681434 212.54384004740194,703.0633685383323 209.43434172658246,700.7179236263466 206.32015444417397,697.8060625748585 203.29894362389268,694.2973504190867 200.4521799234783,690.2697225291288 197.83940692246088,685.8845149141191 195.49708053186254,681.3454285706587 193.44151247205085,676.8504609263078 191.67452832444314,672.5471106688366 190.1899261686247,668.50023662822 189.55074852556342,666.5670097840645 188.47308027963143,662.8190415325616 187.6558982523956,659.0953236602531 187.08940664603733,655.203665917123 186.75890092845896,650.9558616352437 186.6406019023561,646.2113545304643 186.698742183557,640.9115028434738 186.77938962626075,638.0622479880626 187.00906331436084,632.0384043302062 187.27958037746674,625.7421786801079 187.71358483513097,613.3412817847573 187.7889549884593,607.7595075538485 187.7388579193118,602.8712446135012 187.56193268613063,598.7907591908706 187.2696439010521,595.5371707299784 186.8788081131334,593.0370847336943 186.40323609196938,591.1401810290794 186.13540316195582,590.3557923270511 185.53587913561503,588.9742424335024 184.83658194780645,587.6502222290816 184.01193254171227,586.1665921820015 183.03441798676,584.3372981080736 181.88446907591026,582.0184428067175 180.55984698926312,579.1131170795297 179.08183559232447,575.5717924605935 177.49620050611432,571.3903073083441 175.86811986346993,566.606977025512 174.27181283857195,561.2994013639868 172.77700379812288,555.5805176439897 171.43528964556066,549.5927475529844 170.26966621751288,543.4989828173333 169.7509555834883,540.4657650941641 168.39464109698793,531.6668249602708 167.58116721770864,526.2255279487288 166.75866596445044,521.2377856552356 165.8639806102745,516.7401729547456 164.85499184350553,512.7095714627097 163.7189601672707,509.06853604146016 162.47392121691567,505.70042377354923 161.16299173467758,502.4722377926001 159.84317834292276,499.26125177104484 158.57160304789494,495.9803202436413 157.3926297128811,492.5966832776989 156.32905031208935,489.14014362533555 155.3793544780895,485.6985505018894 154.52146022266112,482.4011460222347 153.72156132942854,479.39294232436595 152.9454038408632,476.8053048859383 152.16869802826182,474.7288466706362 151.3836669386212,473.1943507516523 150.59985204811957,472.16579504750655 149.8389422775515,471.54699902991865 149.12512078938846,471.2005076893573 148.47376114503328,470.9747151436793 147.88187575228434,470.73348961829845 147.3233490920323,470.3820754199576 146.75075264827154,469.8839159808134 146.10375051738703,469.2650591286498 145.32223583038814,468.6055104633315 144.3608960376963,468.01968477396014 143.20129878686345,467.6303540158118 141.85801790810163,467.54172221273194 137.2717604743576,469.44340970306126 135.7780662313661,470.6557356189417 134.37190731360772,471.98261871547106 133.04341708372527,473.2967615970869 131.74389381665213,474.4858622850886 130.39568235118793,475.469177791911 129.6754373028469,475.86939931988917 128.09043492931377,476.4810529369651 126.26218599786918,476.8592610683003 124.16666723598973,477.0482612461438 119.3283471845276,477.08605634838614 116.77445552148646,477.03653675732585 114.29859604154633,476.9862909834819 112.02319162343458,476.9503720792604 110.03981821937296,476.9346294790864 109.17356381631616,476.9355450585019 107.69433124387945,476.9599719691164 106.51828963237959,477.0282752931071 105.56821447821422,477.166833194199 104.74299294139023,477.4111332767406 103.93934864325176,477.79967415330594 103.07166825917814,478.3654337641732 102.08532067114979,479.12721777643424 100.96069514024609,480.0832603366296 100.34878467476321,480.6272764348465 99.04112802456196,481.82183256736954 97.6461913680576,483.1127044764936 96.18589327481747,484.43811273436967 94.66338465482366,485.73784071772775 93.05886208974884,486.96310788733433 91.3343834568445,488.0837111499206 90.4133529030722,488.6012194657863 88.43051274577708,489.55484103766497 86.24646294973219,490.41730105788156 83.87684351651579,491.2174904342556 81.37956788441305,491.98561817328294 78.85190642353477,492.74523599487554 73.21648956241715,494.6487364726593 71.52955648373766,495.38410172608354 70.25790712567576,496.07467364385224 69.77572954984845,496.3972939705913 68.6776731471527,497.5127469970267 68.5454485766262,497.75070868145326 68.34674346680647,498.1929034722708 68.14500769668217,498.61423061228106 67.86118416132386,499.0475451348638 67.46158628834011,499.524668122874 66.95969821413068,500.0707612320689 66.40624019832732,500.7003312550409 65.87028688937212,501.41552400530037 65.41643374883459,502.2067465160541 65.083950494349,503.0551009048482 64.8733001631491,503.93576582061036 64.7434790341368,504.82139731610954 64.6208329663551,505.6848293503588 64.41703990823062,506.50074625493454 64.0515707017463,507.24643619280386 63.47275721047409,507.902071540914 62.67191293192281,508.4510904380831 61.68669109043208,508.8811344929268 60.59259160126021,509.1856724724151 59.484552572025045,509.36601915485517 58.453118132266475,509.43308898508417 57.561112920971674,509.40804420801624 56.82670612171343,509.3210940481558 56.51028851180967,509.26552248697885 55.93651182008178,509.1532416273623 55.36018643312268,509.067049641431 54.67228312414594,509.03106845790916 53.77412469886169,509.0541181673855 52.601277008159656,509.126506639505 51.13979271801253,509.2203862055322 49.43096200885607,509.29404007993895 47.56352001412797,509.29953825453504 45.655284873524465,509.1923203021297 43.82870283409753,508.94065466033976 42.18614608336092,508.5327722694202 40.790724123648964,507.9798550885045 39.656875948372495,507.3139235188897 38.75250764307428,506.5808312357136 38.011571055693665,505.8297719322061 37.353469598711335,505.10163457286365 36.704147079027436,504.41896310475283 36.01352561462701,503.7800466613132 35.265122897413576,503.15880359068194 32.947320342275596,500.9336876793255 32.298625318448906,499.9327092288674 31.75928086866449,498.7832411261517 31.318646723463686,497.51813101613243 30.9388363760186,496.19640077028856 30.564968594397083,494.89165894194355 29.895977005139414,493.1195106421831 29.327788554128347,492.12826812396037 28.661583899415525,491.29658570282777 27.934500741283685,490.58566744386746 27.2090607379715,489.9222723120709 26.04654778717124,488.3640122160917 25.617972783299354,486.6791328120967 25.549877403949903,485.2486869255638 25.602238326382036,483.6102931105729 25.702277023907055,481.84617579467533 25.779129225837455,479.20552588652845 25.708069032263452,477.60707276792715 25.531699806416828,476.2260483856253 25.296436954398782,475.07920916846456 25.035366684226204,473.6804367327556 25.095756967610445,472.79169056121276 25.825674570128015,471.13063357415166 26.853569267763156,469.5791470424625 28.34457483678741,467.5429700960036 30.265479355879737,464.9846198183026 32.53707911454501,461.94479777114583 35.04871036219704,458.53872657826116 37.6771667613307,454.938529187227 40.30593477777779,451.34480952725477 42.8410681770952,447.95269528286406 47.42094862108983,442.3341668746762 49.44808638796104,440.2110441538192 51.3369322701791,438.4807405958295 53.13968096570432,437.0075790705227 54.918038303804586,435.6131051821281 56.73621657292837,434.1069839701517 58.65543405088816,432.3188897986138 60.72918479262717,430.1259875085396 62.998181604362756,427.47172375664377 68.18249963314454,420.9185124701391 71.05497470482572,417.25029306056877 74.02446480792882,413.5473235549061 76.97452168543892,409.99910314262985 81.03110741018683,405.34516366747346 84.88745811251381,401.01859921200173 85.84815257409726,399.770004333687 86.08622620814867,399.0949512350583 85.64354921248582,398.9048061364426 84.64813226928628,399.07368201887743 83.30193344258164,399.45149998446914 81.85427052085832,399.87845712926145 80.56471658754091,400.1999277186019 79.66193396836076,400.2808500714913 79.30624027129244,400.01855935694 79.56340145243027,399.35288351835516 80.39518048398007,398.27224550494554 81.6689004299949,396.8146387571841 83.96129226643902,394.1119858751844 85.41389919902257,392.14382635048986 86.57740886578864,390.2014461029979 87.33002256147654,388.41167403065316 87.63771778119211,386.8727244204778 87.55458243417567,385.6399046519374 86.98282705659852,384.36106829586856 86.5495849397135,383.8066505990144 86.26476632321504,383.37649409992 86.24802102454716,382.95239335851994 86.56093199501814,382.42062715863796 87.20553012027321,381.6913828682795 88.13716165179885,380.71343909657736 89.28735044096052,379.48150065657296 90.59001318199444,378.03501408235786 92.00379641333957,376.4489524673455 93.52452641037658,374.8185945466585 95.18447147117462,373.2414122717093 97.03862536121518,371.79960133631243 99.14165552888517,370.5464691906544 101.52166969312437,369.4989298659361 105.54904619267153,368.2605983146257 108.39769312340813,367.57440750987433 112.51045318371993,366.563814149525 114.86288874350079,365.7899527766789 116.69570644628179,364.86085779629104 117.88670843771945,363.7324863584415 118.39054270660976,362.3809414311737 118.2483196513467,360.80105900453043 117.58101506988594,359.0035815559304 114.32349333512246,352.60742758327575 113.45008659706184,350.3062391021346 112.8955603720443,348.0414468912666 112.69220645286582,345.9112530942373 112.8114967329329,344.02830803658463 113.18206527803939,342.51249769653157 113.71402080585177,341.47942490403153 114.32348041518642,341.02573247994115 114.95163497840925,341.21342264455495 115.57438717726384,342.0559323470921 116.20116643164583,343.5087600811855 116.86426470372618,345.46687048983705 117.60228522465184,347.7700347218077 118.44253510140233,350.2159193202597 119.3871745813073,352.57939794757874 120.92716949405227,355.4838589473811 121.94274568183633,356.71462331519257 122.8567609924166,357.2232317185155 123.59493253472944,356.94687592586337 124.10586578536827,355.89354641170166 124.37293190824762,354.1401616332373 124.41884227353414,351.8244799466064 124.30213289594332,349.13228317890935 124.20841255942152,347.71231166671515 123.92711518881856,343.50487972744037 123.85307515791408,341.0322682596442 123.95657044595846,339.0737087866732 124.28403659412167,337.8037627318541 124.85465323736096,337.3479269763597 125.66423844416452,337.77192417100224 126.69295806531127,339.07492175664606 127.91436932620034,341.1878365146297 129.3033340074947,343.97774058648963 130.8409984614176,347.2588978158554 132.51611407737198,350.8101302756028 134.32313563125544,354.3971612298634 136.25845823800654,357.79751875905583 138.31659264187442,360.8247732713341 140.48794012841967,363.34856880911667 142.75918339879425,365.30724715861044 145.11636963087685,366.71087377420235 147.549812592284,367.6340139993345 150.05926121357183,368.1993962551499 152.65756765953753,368.55527192115767 155.37139844209656,368.85047398063773 158.23827914921313,369.2116080366571 161.30023882055278,369.7263567948037 164.59525498436793,370.43561309421784 168.1483431605129,371.335333707696 171.96431246028143,372.387015260664 176.02388098211574,373.53397004740856 180.28410098556245,374.7195034226959 184.68308276080143,375.90290145876196 189.14807475876518,377.06986084283744 193.60528474375545,378.23545312174207 197.98956263117574,379.43956096157075 202.25224550293797,380.73651425439004 206.36600659826735,382.18196370322147 210.32628082645402,383.82055181122644 214.1495557671477,385.6775629226111 217.86933423633585,387.75656143491295 230.7646506788478,396.5268194183166 234.6153816623591,399.3986755846853 238.60964876668612,402.44785940965977 242.7638002089767,405.7083765145603 247.0751866090814,409.2193843060053 251.51962734934978,413.0117192789162 256.05082429971674,417.0942274534789 260.6026719730262,421.443699944431 265.09513837130453,426.00155374511 269.4437548096523,430.6788858493655 273.57186625869736,435.36951116114875 277.42386871761687,439.9685528014359 280.9769621021104,444.3925928408264 284.2487221283962,448.59671820803686 287.2981958806843,452.5842155148568 290.2192587363712,456.40612826876736 293.12647407829536,460.1500878229578 296.13536736006614,463.92027582294605 299.3404825790724,467.8125097177243 302.79545982657027,471.88975377819384 306.4993960858774,476.1635188451603 310.39284173081586,480.5855490983197 314.365071250862,485.05211004545833 318.27207200484816,489.420530223342 321.96247231724624,493.53498999373045 325.3068624284699,497.2564824357716 328.22504989126276,500.4908566942971 330.7059604420026,503.2091264644811 332.8161393770203,505.4557351198025 334.69488887286826,507.34289516903146 335.606770717472,508.2009054847721 337.5126369296039,509.85921810814807 339.7142468628286,511.5908284489277 342.4130432766015,513.5499215952351 345.7585559263196,515.8372608570826 349.82658951677416,518.4834081331392 354.6089427403123,521.4447077275237 360.0158731484291,524.6122702176554 365.89032577801504,527.831687868702 372.0310908936571,530.9292879361587 381.26890169861184,534.9939708768584 387.1589711505966,537.139134405471 395.24124103257645,539.3677590830702 400.03632669918665,540.208667385324 402.2577096020515,540.4561682273338 408.3282861875134,540.6364361132298 412.0327576598863,540.4078465689997 415.6394573880538,540.0053177285395 419.30925554959776,539.5003896988107 423.1884590482019,538.9424588289902 427.3897328162075,538.3593572503286 431.9771988543059,537.7617764703361 439.5811269418525,536.8364407866198 447.8383159886656,535.861280984747 453.49548728399884,535.1770632136812 459.096459990717,534.464165076518 464.4983439862926,533.7226729519193 469.59528350039767,532.952420640108 474.33977939708456,532.152627487991 478.7553442693175,531.3230151271054 482.9373401712227,530.4663355044928 487.04075000018236,529.5916231300417 491.2560517530817,528.7170800231831 495.7768397466475,527.8714389452365 500.7648197687468,527.0929567349251 506.31879574545246,526.4257860863107 515.7195263103894,525.7289407367701 522.5615719357921,525.5173583633829 529.6589026226652,525.5295534780846 536.7921628955577,525.7636349812252 543.7446832822028,526.200209734927 550.3399828637745,526.8066491329213 556.4704659080525,527.5440593824809 562.1112315346753,528.3754306517382 567.3160667756651,529.2730861086598 572.1966004074931,530.22363421621 576.8893869815496,531.2291396440742 581.5184881744019,532.3040599582332 586.1622419377517,533.4684599547122 590.8320483398264,534.7388934195437 595.4683014924308,536.1189324210676 599.9546435382471,537.5914909862219 604.1474104298325,539.114793880867 607.9134826283603,540.623144225283 611.1676283143055,542.0326969990801 613.9003641582428,543.2514498040797 619.1495233221548,544.9346570551833 623.340095993644,544.5570753039399 625.9741135557977,543.8465075448105 629.1072967688813,542.8913635461864 632.731089233435,541.8011006538763 636.7499457568812,540.6967942051307 641.0064829558324,539.6981713780729 645.3191455217465,538.9116286328291 651.5471713282274,538.3046219394155 655.4010444630695,538.350828609373 659.0045202083512,538.7735030828323 662.4260681299402,539.5562765667348 665.7783720435481,540.6631417263937 669.1829606912813,542.0466062327657 672.7332827500092,543.656261148489 676.4655760660031,545.446600922273 680.3448806769488,547.3831195377289 684.2697265490879,549.4459929728209 688.094334551214,551.631010873249 691.6627629522366,553.9478066064786 694.8464087816815,556.4158182326067 697.5753921163216,559.0587500604983 699.8558421248921,561.8985463631238 701.7686074796861,564.9499867521444 703.4495667364081,568.2169290623998 705.0563588706746,571.6909475696162 706.7298241150909,575.3526643108686 708.5598582449617,579.1755157504228 710.5643606186368,583.1311343651954 712.6867271591317,587.1950795049502 714.8126868524296,591.3514390723021 716.8023553032916,595.5949264531762 718.529416480411,599.9295372512685 719.9173568036426,604.3635531900209 720.9631990482665,608.9015562758891 721.7421338808635,613.5349601053997 722.3911340631362,618.2331742132552 723.0749250378946,622.9377153855922 724.4761860893308,629.8086526326572 725.7604692666101,634.098243351263 727.2812615424908,638.0112362626122 729.6642425329559,642.9400499145248 730.9878391538603,645.4981630040708 731.9511356176857,648.8669720474143 731.2935264037354,649.8252845923869 729.8560323231605,650.4691128754287 727.7674987821251,650.9509582475088 725.2447924927981,651.4146808433989 721.2081629873308,652.3068428182766 718.6799452288309,653.1005243033474 716.4413105265779,654.0306173378408 714.5019370575355,655.0198956151487 712.7576577869636,655.959517120114 711.0186856257965,656.7343471075557 709.0585356323728,657.2497045239118 706.6725614740817,657.4538905472316 703.7327080254337,657.3515174526107 698.2908736724634,656.7712308285013 694.1849916371414,656.2649097583472 689.997086082527,655.8114763038759 686.0394647551498,655.5141669870449 681.1596295872996,655.4506445849778 678.887470644106,655.6002620830326 677.4564452291977,655.750925996666 676.762559371097,655.7015586343666 676.5898625480091,655.219665005536 676.6559454307067,654.0784512904482 676.5761786835845,650.7503739405089 676.0781175840361,647.3327301952982 674.4173975090055,640.5070780683616 666.8913209869859,617.0482677624356 665.2121327522658,611.3263578232398 663.8318134630039,606.0414114574297 662.7274452663314,601.2631827210022 661.8048618608409,596.9883407380934 660.9273636376314,593.1568391188242 659.9528194566283,589.6761825166516 658.7698959104633,586.4480663109902 655.6331327783801,580.4602220571002 653.7734855132862,577.6451164976274 651.8673462821178,574.9728242760094 650.0486248095777,572.4913156787238 648.4317986461404,570.252941639156 647.0858504535129,568.2971304738436 646.0199498213582,566.6371799269623 645.1837180288319,565.2540747117893 644.4813614085813,564.0984909450851 643.795765879001,563.1002295930764 643.0165461152585,562.1826857024174 642.0654696763311,561.2789532126509 640.9136735372466,560.345971511488 639.5873250801501,559.3737319834783 637.4436519014739,557.906444661698 636.0735464039117,557.0134476863943 634.8856682070168,556.2841344774556 633.9751067415807,555.8029202847886 633.40287618297,555.6422115706986 633.1907223935631,555.8529583933686 633.3244481629799,556.4600847055013 634.081355591797,558.1070785171949 634.8779103817672,559.6601658689689 635.8476778822101,561.535120336476 636.950208561534,563.694015135634 638.1566223092118,566.1040890582806 639.4459091757815,568.7407337119035 640.7986058009653,571.5873722883289 642.1904374585033,574.6328258735888 643.5882927814157,577.8672837869618 644.950004822858,581.2781894519374 646.2281399231862,584.8472167715424 647.3767255990407,588.5491188035273 648.3589411557938,592.3527058556389 649.1534939583213,596.2236926809883 649.7577756328334,600.1287601131571 650.3439498877748,605.9916110590985 650.563737185008,609.8807810246483 650.6837844654476,613.7523970234959 650.7287062979115,617.6192063338179 650.7108401434876,621.5051377141739 650.6290208827013,625.4419379791043 650.4715067058032,629.4644741602165 650.2221169168631,633.6051588145991 649.6496355443229,640.0867335324723 649.1357201667919,644.596636688804 648.5340736483982,649.2394691233332 647.5324572692389,656.3628486052492 646.5142978858473,663.4887894411537 645.8702923554873,668.1163427310219 645.2642845454454,672.5610287918417 644.6856591896118,676.7672785160054 644.1096238163865,680.7051955011868 643.5044319961933,684.3767508387467 642.8409890054247,687.8167469549405 642.1024461869009,691.0875777344714 641.2913083172936,694.2679859637249 640.432134167324,697.4373569805434 639.1532442951077,702.2991522373261 638.3903089885373,705.6410262413282 637.7631056064265,709.0293486103509 637.3111550446648,712.3876745609341 637.0520412703166,715.6107873277897 636.9792593127496,718.5857094649494 637.1568332216777,722.3858212737924 637.4089176787292,724.4237893545701 637.7265982151592,726.1083661854742 638.0925001573562,727.5553553071547 638.5139030983528,728.9387411852299 639.0246382722979,730.4655209011523 640.0846021952055,733.4651103714436 641.0873678353377,736.157359550686 643.1860570554242,741.360404648414 645.0271542083415,745.5032457850223 648.4202051727285,752.2854188132848 652.3785328832319,759.0234519068308 655.1618435389526,763.1039424501851 657.9181780214941,766.6700477188858 662.8796628171987,772.1682206758766 664.8992233376649,774.3193473501905 666.5375644020133,776.356868035874 667.7816740755432,778.5444034134234 668.650039226504,781.1318878215976 669.1865901756198,784.3138542236588 669.4526142467814,788.1991924524008 669.4535141360507,798.024551984991 669.323737689441,803.7225189009438 669.1833893671666,809.6937178040756 669.0749930522419,815.736814592144 669.0290116681815,821.6803528662091 669.0655682704152,827.406544213688 669.1972126430807,832.8616339461148 669.5901817876414,840.5631082178761 669.9919132091904,845.4609933314504 670.5134790236787,850.256814483222 671.5356444408206,857.3897146154167 672.3827185369057,862.1415886259881 673.3579756591628,866.8737344905941 674.4446162837335,871.5377572626192 675.6099354355994,876.0684281982387 676.8032622859885,880.3982678573374 678.9888916312576,888.2458785016169 679.812988869832,891.706842155388 680.3462382204228,894.8517897767312 680.5217696626883,897.6894701217398 680.0364877038676,901.3954565743744 679.2220040082057,903.5136133894287 678.0737099599587,905.360791928903 675.1707018941183,908.3199954173929 673.6677727385,909.5141014020371 671.7131782471341,911.153151224694 670.7642042354126,912.2903067005478 670.1786222179885,913.5872568524843 669.9805803067512,915.1358826218059 670.155109557486,916.99514940174 670.6545341075513,919.1767570744386 671.8566638549607,922.9466209450135 672.8433679283314,925.6403446982232 673.8910005932053,928.3153883873772 674.9398248847067,930.823553099926 675.9474434997306,933.0362499072264 677.3282724478856,935.6236301170006 678.144399072574,936.8320317092966 678.86908583118,937.6758606671123 679.4939373952911,938.2443863200571 680.0053539760006,938.6481899303107 680.5163286622683,939.1806545944403 680.6523367817175,939.606747729651 680.5994598606022,940.140775252402 680.3431612092048,940.7869158594266 679.5699984706272,941.9138549353048 678.8081740443826,942.7191911563046 677.8710213597876,943.5339500386539 676.7824936470388,944.3468548569448 675.5660604560367,945.1647456709228 673.5400680853481,946.4443638846269 672.0673331487786,947.3606351533266 670.4952255152141,948.3316544944502 668.8149305036188,949.3346283792805 667.0155007378029,950.3212019512268 664.0777550726242,951.6200353095974 661.9650246413977,952.2594665614322 659.7504460446113,952.6520022867335 655.1749800717573,952.6452184645169 652.9283784666059,952.3161719446317 650.8003620857447,951.8698002217204 647.983039014381,951.1827395779193 646.4422435544176,950.8296767039918 644.7351176438017,950.5650701464652 644.0152601960153,950.5589599590678 643.6089372176693,950.6400870672949 643.4711319030725,950.7451278582489 643.6254185348654,950.8155629682216 643.8592767235838,950.7510629268968 644.4575222681661,950.191054606997 644.4790439253878,950.0439358514576 644.3943704644577,950.1125466995001 644.2675919515059,950.3229293210863 644.1381661186279,950.6371124137539 644.0412267386033,950.9821931032205 643.998735852442,951.2653327869157 644.0387871011991,951.378848597132 644.1048963049151,951.1608096919717 644.1616299967976,950.6960057525421 644.1709290019514,950.0292455144057 644.0387201869777,948.8430336504086 643.8490183472367,948.0836366323567 643.6086803053032,947.4590578876738 643.3710304747399,947.0213839481753 643.204742049451,946.7680509253125 643.181166946168,946.638559840771 643.5375786399168,946.4301878658231 644.0759262267177,946.081154281265 644.8419215952011,945.4144975758137 646.3034259141757,943.6478382455148 647.3728034903853,941.9443910956472 648.4182497381147,939.8932066883049 649.365340276154,937.6160609341135 650.5010251030609,934.1076013721811 651.0541902603819,931.9210504775385 651.4738444327478,929.9862804526107 651.8105259977883,928.3574996012572 652.1232877720195,927.0317125936474 652.661189423151,925.4826953581066 653.1118801404631,924.6053284394507 653.6422305746057,923.7299566331291 654.2322976710828,922.765928258678 654.8471804815247,921.6509993980237 655.4467377390018,920.3577285675208 656.2421835054354,918.104142128737 656.6730270828194,916.4458387420883 657.0184595509776,914.7211573108927 657.2853598794949,912.9808164360239 657.560955072084,910.4329487793137 657.7141795914182,907.2989310400553 657.6815656230402,905.8796137193403 657.5566502582717,904.5664516671659 657.3293494767925,903.3553914296962 656.8078546960178,901.6902907573789 656.1548774624925,900.0824503977082 655.7277681222765,898.9270849768664 655.3735094488253,897.5955394721079"></polyline></svg>